<?xml version="1.0" encoding="UTF-8"?>
<!DOCTYPE svg PUBLIC "-//W3C//DTD SVG 1.1//EN" "http://www.w3.org/Graphics/SVG/1.1/DTD/svg11.dtd">
<!-- Creator: CorelDRAW 2018 (64-Bit Evaluation Version) -->
<svg xmlns="http://www.w3.org/2000/svg" xml:space="preserve" width="150px" height="150px" version="1.1" style="shape-rendering:geometricPrecision; text-rendering:geometricPrecision; image-rendering:optimizeQuality; fill-rule:evenodd; clip-rule:evenodd"
viewBox="0 0 150 150"
 xmlns:xlink="http://www.w3.org/1999/xlink">
 <defs>
  <style type="text/css">
   <![CDATA[
    .fil0 {fill:#FEFEFE}
   ]]>
  </style>
 </defs>
 <g id="Layer_x0020_1">
  <metadata id="CorelCorpID_0Corel-Layer"/>
  <g id="_2061756845632">
   <path class="fil0" d="M132.99 55.99c-0.38,0.42 -4.07,5.13 -8.24,10.49 -4.97,6.38 -7.57,9.97 -7.57,10.48 0,0.42 0.29,0.9 0.65,1.09 0.35,0.2 5.29,1.45 10.96,2.76 7.83,1.8 10.39,2.28 10.71,2.02 0.61,-0.51 0.55,-1.15 -0.09,-1.54 -0.33,-0.16 -4.81,-1.28 -9.94,-2.47 -5.17,-1.22 -9.4,-2.37 -9.4,-2.53 0,-0.19 3.21,-4.42 7.09,-9.46 8.37,-10.8 8.05,-10.36 7.79,-11.03 -0.29,-0.74 -1.19,-0.64 -1.96,0.19l0 0z"/>
   <path class="fil0" d="M81.6 61.67c-0.36,0.67 -0.49,20.42 -0.13,21.32 0.25,0.67 1.6,0.67 1.86,0 0.35,-0.9 0.22,-20.65 -0.13,-21.32 -0.19,-0.32 -0.55,-0.61 -0.8,-0.61 -0.26,0 -0.61,0.29 -0.8,0.61l0 0z"/>
   <path class="fil0" d="M112.44 61.32c-0.29,0.22 -0.38,2.66 -0.32,11.15l0.1 10.87 0.8 0 0.8 0 0.09 -10.71c0.07,-11.47 -0.03,-12.21 -1.47,-11.31l0 0z"/>
   <path class="fil0" d="M32.54 62.21c-0.19,0.45 -0.32,5.1 -0.32,10.84 0,11.51 -0.07,11.19 2.43,10.52 2.18,-0.58 6.55,-2.86 8.95,-4.65 7.15,-5.36 7.98,-13.56 1.7,-16.71 -2.69,-1.34 -6.03,-1.15 -10.23,0.58 -0.38,0.16 -0.58,0 -0.74,-0.58 -0.29,-1.12 -1.38,-1.12 -1.79,0l0 0zm11.77 1.86c2.66,1.38 3.71,4.88 2.37,7.99 -0.8,1.86 -3.11,4.39 -5.58,6.06 -1.96,1.31 -5.55,3.14 -6.22,3.14 -0.32,0 -0.42,-1.76 -0.42,-7.82l0 -7.83 1.16 -0.7c2.59,-1.64 6.47,-1.99 8.69,-0.84l0 0z"/>
   <path class="fil0" d="M52.74 61.99c-0.19,0.42 -0.32,4.39 -0.32,10.74 0,8.75 0.06,10.16 0.51,10.58 0.61,0.64 0.93,0.64 1.54,0 0.45,-0.42 0.51,-1.86 0.51,-10.84 0,-7.59 -0.09,-10.42 -0.38,-10.7 -0.58,-0.58 -1.48,-0.45 -1.86,0.22l0 0z"/>
   <path class="fil0" d="M58.73 61.57c-0.12,0.13 -0.22,4.94 -0.22,10.71 0,7.7 0.1,10.55 0.38,10.84 0.45,0.45 18.09,0.54 18.79,0.1 0.26,-0.16 0.39,-0.55 0.32,-0.87 -0.09,-0.58 -0.6,-0.61 -8.75,-0.77l-8.66 -0.16 -0.16 -9.94c-0.16,-9.71 -0.16,-9.94 -0.8,-10.04 -0.38,-0.06 -0.77,0 -0.9,0.13l0 0z"/>
   <path class="fil0" d="M97.88 62.41c-2.27,2.43 -6.67,7.66 -6.67,7.92 0,0.16 0.23,0.51 0.49,0.77 0.41,0.41 0.73,0.41 2.78,-0.17 2.92,-0.76 7.19,-0.67 8.92,0.2 4.84,2.5 4.39,7.05 -0.96,9.84 -1.25,0.67 -1.9,0.77 -4.97,0.74 -3.79,0 -5.49,-0.45 -8.15,-2.25 -1.38,-0.89 -2.37,-0.93 -2.53,-0.03 -0.19,0.9 0.54,1.51 3.24,2.82 5.77,2.79 12.21,2.38 16.09,-1.06 1.74,-1.5 3.05,-4 3.05,-5.7 -0.03,-2.66 -2.15,-5.2 -5.45,-6.48 -1.35,-0.51 -2.5,-0.67 -4.87,-0.67 -1.74,-0.03 -3.15,-0.07 -3.15,-0.1 0,-0.06 1.03,-1.25 2.25,-2.69 2.31,-2.66 2.53,-3.11 1.86,-3.78 -0.58,-0.58 -0.87,-0.49 -1.93,0.64l0 0z"/>
   <path class="fil0" d="M25.81 62.15c-0.61,0.22 -2.06,0.9 -3.21,1.47 -6.54,3.31 -10.45,7.76 -10.84,12.38 -0.19,2.44 0.32,4.01 1.83,5.68 2.53,2.82 6.28,3.49 10.8,1.98 2.86,-0.96 2.7,-0.96 2.7,-0.16 0,0.84 0.8,1.16 1.44,0.65 0.42,-0.36 0.48,-1.96 0.42,-11.36l-0.1 -10.93 -0.96 -0.06c-0.51,-0.03 -1.48,0.12 -2.08,0.35l0 0zm1.28 9.91c0,8.88 0.13,8.4 -2.76,9.49 -2.53,0.96 -4.07,1.09 -6,0.54 -4.97,-1.44 -5.8,-6.99 -1.76,-11.57 1.32,-1.51 4.52,-3.82 7.25,-5.16 3.52,-1.77 3.27,-2.28 3.27,6.7z"/>
  </g>
 </g>
</svg>
