<?xml version="1.0" encoding="UTF-8"?>
<!DOCTYPE svg PUBLIC "-//W3C//DTD SVG 1.1//EN" "http://www.w3.org/Graphics/SVG/1.1/DTD/svg11.dtd">
<!-- Creator: CorelDRAW 2018 (64-Bit Evaluation Version) -->
<svg xmlns="http://www.w3.org/2000/svg" xml:space="preserve" width="150px" height="150px" version="1.1" style="shape-rendering:geometricPrecision; text-rendering:geometricPrecision; image-rendering:optimizeQuality; fill-rule:evenodd; clip-rule:evenodd"
viewBox="0 0 150 150"
 xmlns:xlink="http://www.w3.org/1999/xlink">
 <defs>
  <style type="text/css">
   <![CDATA[
    .fil0 {fill:#FEFEFE}
   ]]>
  </style>
 </defs>
 <g id="Layer_x0020_1">
  <metadata id="CorelCorpID_0Corel-Layer"/>
  <g id="_1884616963488">
   <polygon class="fil0" points="85.86,77.04 85.86,85.8 86.61,85.8 87.36,85.8 87.36,77.04 87.36,68.28 86.61,68.28 85.86,68.28 "/>
   <path class="fil0" d="M101.13 72.39c0,2.27 -0.07,4.18 -0.2,4.25 -0.1,0.05 -0.47,-0.17 -0.8,-0.52 -1.83,-1.91 -5.33,-1.76 -7.38,0.3 -2.23,2.22 -2.16,6.18 0.15,8.26 1.25,1.12 1.97,1.4 3.73,1.42 1.42,0.03 3.08,-0.6 3.73,-1.4 0.5,-0.6 0.77,-0.47 0.77,0.35 0,0.68 0.08,0.75 0.75,0.75l0.75 0 0 -8.76 0 -8.76 -0.75 0 -0.75 0 0 4.11 0 0zm-1.85 4.2c2.5,1.73 2.6,5.81 0.18,7.64 -1.83,1.4 -4.89,0.9 -6.06,-1 -1.58,-2.56 -0.45,-6.39 2.12,-7.19 1.08,-0.35 2.83,-0.07 3.76,0.55z"/>
   <path class="fil0" d="M15.54 70.58c-0.4,0.88 -1.58,3.61 -2.66,6.09 -1.07,2.48 -2.38,5.51 -2.9,6.73 -0.55,1.23 -0.95,2.25 -0.93,2.3 0.05,0.03 0.93,0.1 1.93,0.13 1.65,0.05 1.9,0 2.05,-0.43 0.13,-0.25 0.45,-1.07 0.75,-1.8l0.56 -1.33 3.38 0.08 3.4 0.08 0.65 1.62 0.65 1.63 2.06 0.08 2.07 0.07 -0.35 -0.83c-0.2,-0.45 -1.72,-3.98 -3.43,-7.83 -1.68,-3.86 -3.15,-7.26 -3.28,-7.59 -0.2,-0.47 -0.37,-0.55 -1.72,-0.55l-1.53 0 -0.7 1.55zm3.25 6.04c0.5,1.27 0.88,2.38 0.8,2.48 -0.15,0.25 -4.08,0.25 -4.08,0 0,-0.23 1.65,-4.44 1.88,-4.81 0.25,-0.43 0.4,-0.18 1.4,2.33z"/>
   <path class="fil0" d="M54.49 69.43c-0.1,0.1 -0.17,3.83 -0.17,8.29l0 8.08 0.87 0 0.88 0 0 -3.88 0 -3.88 4.63 0 4.63 0 0 3.88 0 3.88 0.75 0 0.75 0 0 -8.26 0 -8.26 -0.75 0 -0.75 0 0 3.63 0 3.63 -4.63 0c-3.53,0 -4.63,-0.07 -4.63,-0.32 -0.03,-0.15 -0.05,-1.78 -0.08,-3.56l-0.05 -3.25 -0.62 -0.08c-0.35,-0.05 -0.73,0 -0.83,0.1z"/>
   <path class="fil0" d="M30.11 70.98l-1.58 0.08 0 1.6c0,1.13 -0.1,1.63 -0.3,1.65 -0.17,0.03 -0.65,0.05 -1.08,0.08 -0.72,0.02 -0.75,0.07 -0.82,1.33l-0.08 1.32 1.13 0 1.15 0 0 3.13c0,3.48 0.28,4.56 1.35,5.26 0.93,0.63 2.61,0.93 3.96,0.75l1.2 -0.17 0 -1.36 0 -1.35 -1.1 0c-1.65,0 -1.9,-0.5 -1.9,-3.68l0 -2.55 1.55 -0.08 1.52 -0.07 -0.02 -1.08c0,-0.57 -0.02,-1.13 -0.02,-1.25 -0.03,-0.1 -0.56,-0.18 -1.21,-0.18 -1.8,0.03 -1.82,0 -1.82,-1.75 0,-0.88 -0.08,-1.63 -0.18,-1.68 -0.12,-0.05 -0.9,-0.05 -1.75,0l0 0z"/>
   <path class="fil0" d="M41.37 74.29c-1.22,0.25 -2.68,0.9 -3.05,1.35 -0.2,0.23 -0.03,0.55 0.58,1.13l0.85 0.82 0.8 -0.55c0.45,-0.32 1.27,-0.62 1.87,-0.7 0.98,-0.1 1.21,-0.02 1.88,0.68 1.3,1.3 1,1.62 -1.67,1.8 -3.86,0.28 -5.34,1.38 -5.34,3.96 0,1.05 0.13,1.4 0.75,2.1 1.53,1.75 4.61,1.78 6.46,0.1l0.55 -0.5 0 0.62c0,0.63 0.08,0.66 1.53,0.75 1.08,0.06 1.58,-0.02 1.65,-0.22 0.08,-0.18 0.08,-2.05 0.03,-4.13 -0.08,-3.48 -0.13,-3.96 -0.7,-5.06 -0.43,-0.85 -0.9,-1.38 -1.51,-1.68 -1.07,-0.55 -3.27,-0.75 -4.68,-0.47l0 0zm3.68 7.33c0,2.03 -3.23,3.26 -4.35,1.66 -0.85,-1.26 0.6,-2.48 2.93,-2.48l1.42 0 0 0.82z"/>
   <path class="fil0" d="M74.14 75.17c-1.5,0.65 -2.35,1.42 -2.95,2.72 -1.85,4.01 0.8,8.27 5.16,8.27 5.23,0 7.88,-6.19 4.15,-9.74 -0.57,-0.55 -1.5,-1.15 -2.07,-1.33 -1.36,-0.4 -3.26,-0.38 -4.29,0.08l0 0zm4.61 1.37c1.78,1.1 2.43,4.36 1.28,6.39 -1.3,2.3 -4.48,2.83 -6.39,1.05 -1.5,-1.4 -1.95,-3.68 -1.07,-5.59 0.47,-1.05 1.72,-2.17 2.65,-2.42 0.88,-0.25 2.68,0.05 3.53,0.57l0 0z"/>
   <path class="fil0" d="M116.53 75.14c-0.4,0.18 -0.98,0.58 -1.23,0.88 -0.62,0.7 -0.85,0.67 -0.95,-0.18 -0.05,-0.52 -0.22,-0.7 -0.75,-0.75l-0.7 -0.07 0 5.38 0 5.4 0.75 0 0.75 0 0 -3.2c0,-3.7 0.2,-4.61 1.28,-5.71 1.5,-1.55 3.98,-1.3 4.8,0.48 0.35,0.7 0.43,1.65 0.43,4.65l0 3.78 0.78 0 0.77 0 -0.1 -4.2c-0.07,-3.83 -0.12,-4.26 -0.65,-5.08 -0.3,-0.5 -0.95,-1.1 -1.4,-1.33 -1.03,-0.48 -2.76,-0.5 -3.78,-0.05l0 0z"/>
   <path class="fil0" d="M128.9 75.49c-0.98,0.5 -1.56,1.03 -2.08,1.9 -1.35,2.16 -0.93,5.39 0.9,7.09 1.85,1.73 5.81,1.8 7.31,0.1 0.27,-0.28 0.58,-0.53 0.7,-0.53 0.1,0 0.2,0.7 0.2,1.58 0,3 -1.48,4.73 -4.11,4.78 -1.42,0 -2.62,-0.4 -3.85,-1.3 -0.8,-0.6 -0.83,-0.6 -1.18,-0.15 -0.5,0.68 -0.4,0.83 1.15,1.7 1.23,0.7 1.56,0.78 3.61,0.78 1.95,0 2.4,-0.08 3.33,-0.63 0.65,-0.35 1.35,-1.05 1.7,-1.65 0.6,-1 0.6,-1.1 0.6,-7.59l0 -6.55 -0.55 0.07c-0.42,0.05 -0.6,0.27 -0.7,0.93l-0.12 0.82 -0.51 -0.55c-1.4,-1.6 -4.23,-1.95 -6.4,-0.8l0 0zm4.45 0.68c1.25,0.52 1.8,1.05 2.36,2.25 1.65,3.58 -1.41,7.18 -5.21,6.16 -2.66,-0.73 -3.86,-4.41 -2.23,-6.86 0.6,-0.93 2.43,-1.93 3.45,-1.93 0.4,0 1.13,0.18 1.63,0.38z"/>
   <polygon class="fil0" points="107.14,80.42 107.14,85.8 107.77,85.8 108.39,85.8 108.39,80.42 108.39,75.04 107.77,75.04 107.14,75.04 "/>
  </g>
 </g>
</svg>
