<?xml version="1.0" encoding="UTF-8"?>
<!DOCTYPE svg PUBLIC "-//W3C//DTD SVG 1.1//EN" "http://www.w3.org/Graphics/SVG/1.1/DTD/svg11.dtd">
<!-- Creator: CorelDRAW 2018 (64-Bit Evaluation Version) -->
<svg xmlns="http://www.w3.org/2000/svg" xml:space="preserve" width="150px" height="150px" version="1.1" style="shape-rendering:geometricPrecision; text-rendering:geometricPrecision; image-rendering:optimizeQuality; fill-rule:evenodd; clip-rule:evenodd"
viewBox="0 0 150 150"
 xmlns:xlink="http://www.w3.org/1999/xlink">
 <defs>
  <style type="text/css">
   <![CDATA[
    .fil0 {fill:#FEFEFE}
   ]]>
  </style>
 </defs>
 <g id="Layer_x0020_1">
  <metadata id="CorelCorpID_0Corel-Layer"/>
  <g id="_1919173141952">
   <path class="fil0" d="M33.22 9.8c-0.17,0.13 -0.29,29.9 -0.29,66.11l0 65.82 38.74 -0.09 38.73 -0.13 0 -65.89 0 -65.9 -38.44 -0.13c-21.18,-0.04 -38.61,0.04 -38.74,0.21l0 0zm73.4 65.39c0,34.03 0,62.03 0,62.2 0,0.21 -15.67,0.33 -34.83,0.33l-34.86 0 -0.13 -61.68c-0.04,-33.94 0,-61.94 0.13,-62.24 0.12,-0.38 7.53,-0.5 34.95,-0.5l34.74 0 0 61.89 0 0z"/>
   <path class="fil0" d="M72.09 34.77c0,9.94 -0.17,18.11 -0.34,18.11 -0.21,0 -2.36,-1.73 -4.76,-3.79 -4.67,-4.04 -6.44,-4.89 -9.35,-4.51 -1.97,0.26 -4.42,2.07 -5.13,3.84 -0.8,1.89 -1.18,52.63 -0.42,55.58 0.84,3.32 3.41,5.3 6.94,5.3 1.31,0 3.08,-0.67 7.12,-2.73 2.91,-1.52 5.47,-2.74 5.64,-2.74 0.17,0 0.3,1.14 0.3,2.52l0 2.53 11.62 0 11.58 0 -0.13 -2.23 -0.12 -2.19 -4.22 -0.13c-3.32,-0.08 -4.33,-0.25 -4.71,-0.8 -0.42,-0.54 -0.55,-9.98 -0.55,-43.79l0 -43.07 -6.74 0 -6.73 0 0 18.1zm-1.77 24.34l1.35 1.26 0 18.49 0 18.48 -1.14 1.1c-2.28,2.06 -3.41,2.61 -4.55,2.1l-1.05 -0.5 0 -21.01 0 -21.06 0.88 -0.63c1.1,-0.76 2.32,-0.25 4.51,1.77l0 0z"/>
   <polygon class="fil0" points="40.93,113.72 40.93,116.04 71.88,116.04 102.82,116.04 102.82,113.72 102.82,111.41 71.88,111.41 40.93,111.41 "/>
   <path class="fil0" d="M45.56 126.99l0 8.42 4.04 0c3.88,0 4.09,-0.04 5.26,-1.22l1.23 -1.22 0 -6.11 0 -6.1 -1.31 -1.1c-1.18,-1.01 -1.6,-1.09 -5.26,-1.09l-3.96 0 0 8.42 0 0zm6.23 -4.97c0.63,0.63 0.67,8.46 0.08,9.64 -0.25,0.46 -0.88,0.8 -1.47,0.8l-1.05 0 0 -5.47c0,-5.43 0,-5.48 0.97,-5.48 0.54,0 1.18,0.21 1.47,0.51l0 0z"/>
   <path class="fil0" d="M60.72 126.99l0 8.42 4 0 4 0 0 -1.69 0 -1.68 -2.15 0 -2.1 0 0.12 -1.81c0.13,-1.77 0.13,-1.77 1.94,-1.9 1.77,-0.12 1.77,-0.12 1.77,-1.81l0 -1.64 -1.9 0c-1.89,0 -1.89,0 -1.89,-1.47 0,-1.48 0,-1.48 1.89,-1.48l1.9 0 0 -1.68 0 -1.68 -3.79 0 -3.79 0 0 8.42 0 0z"/>
   <path class="fil0" d="M72.93 118.99c0,0.25 0.76,3.91 1.68,8.21 0.93,4.29 1.69,7.87 1.69,8 0,0.12 1.13,0.21 2.48,0.21l2.53 0 0.46 -2.44c0.3,-1.31 1.14,-5.1 1.85,-8.43l1.39 -5.97 -2.02 0c-2.27,0 -2.02,-0.51 -3.16,6.4 -0.37,2.52 -0.84,4.54 -1.01,4.54 -0.12,0 -0.5,-1.55 -0.8,-3.49 -0.29,-1.9 -0.71,-4.34 -0.96,-5.47l-0.43 -1.98 -1.85 0c-1.01,0 -1.85,0.21 -1.85,0.42l0 0z"/>
   <path class="fil0" d="M89.56 121.81c-0.38,1.81 -1.22,5.6 -1.89,8.42l-1.14 5.18 2.02 0 1.98 0 0.29 -1.69c0.3,-1.64 0.34,-1.68 1.9,-1.68 1.56,0 1.6,0.04 1.89,1.68l0.3 1.69 2.06 0c1.43,0 1.98,-0.17 1.85,-0.55 -0.08,-0.25 -0.75,-3.24 -1.47,-6.61 -0.72,-3.37 -1.52,-6.91 -1.77,-7.92l-0.42 -1.76 -2.44 0 -2.44 0 -0.72 3.24 0 0z"/>
  </g>
 </g>
</svg>
