<?xml version="1.0" encoding="UTF-8"?>
<!DOCTYPE svg PUBLIC "-//W3C//DTD SVG 1.1//EN" "http://www.w3.org/Graphics/SVG/1.1/DTD/svg11.dtd">
<!-- Creator: CorelDRAW 2018 (64-Bit Evaluation Version) -->
<svg xmlns="http://www.w3.org/2000/svg" xml:space="preserve" width="150px" height="150px" version="1.1" style="shape-rendering:geometricPrecision; text-rendering:geometricPrecision; image-rendering:optimizeQuality; fill-rule:evenodd; clip-rule:evenodd"
viewBox="0 0 150 150"
 xmlns:xlink="http://www.w3.org/1999/xlink">
 <defs>
  <style type="text/css">
   <![CDATA[
    .fil0 {fill:#FEFEFE}
   ]]>
  </style>
 </defs>
 <g id="Layer_x0020_1">
  <metadata id="CorelCorpID_0Corel-Layer"/>
  <g id="_2061679202784">
   <path class="fil0" d="M116.45 56.41c-6.05,2.27 -11.06,7.5 -12.94,13.61 -3.73,12.17 4.22,24.4 17.28,26.51 9.5,1.5 18.84,-3.44 23.07,-12.28 1.5,-3.17 1.72,-4.17 1.66,-8.34 0,-3.94 -0.28,-5.28 -1.55,-8.06 -1.89,-4.22 -5.78,-8.22 -10.06,-10.44 -2.95,-1.51 -3.95,-1.73 -8.9,-1.89 -4.5,-0.17 -6.11,0 -8.56,0.89zm12.07 10.44c2.77,2.28 4,4.56 4.39,8.23 0.39,3.95 -0.84,7.34 -3.73,9.95 -2.55,2.28 -4.11,2.78 -7.5,2.44 -6.06,-0.72 -9.95,-8.05 -8,-15.06 0.66,-2.5 3.44,-5.83 5.78,-6.89 2.66,-1.17 6.61,-0.61 9.06,1.33z"/>
   <polygon class="fil0" points="4.13,61.19 4.13,66.47 17.75,66.47 31.36,66.47 31.36,61.19 31.36,55.9 17.75,55.9 4.13,55.9 "/>
   <path class="fil0" d="M35.81 76.19l0 20.29 5.56 0 5.56 0 0 -15.62 0 -15.62 4.44 0.22c6.73,0.28 6.34,-0.61 6.56,16.57l0.17 14.45 5.56 0 5.55 0 -0.16 -17.45c-0.17,-19.85 -0.11,-19.4 -4.89,-21.9 -2.34,-1.17 -3.06,-1.23 -15.4,-1.23l-12.95 0 0 20.29 0 0z"/>
   <path class="fil0" d="M92.22 56.24c-12.72,2.67 -18.12,8.39 -18.12,19.4 -0.05,5.55 0.73,8.67 2.95,12 3.61,5.34 12.01,8.78 21.73,8.84l2.06 0 0 -4.34 0 -4.33 -5.06 -0.56c-5.39,-0.67 -7.11,-1.5 -9.17,-4.56 -2.22,-3.27 -2.17,-10.28 0.17,-13.78 1.44,-2.22 4.72,-3.56 9.61,-3.95l4.45 -0.33 0 -4.33 0 -4.4 -3.73 0.06c-2.11,0.06 -4.28,0.17 -4.89,0.28l0 0z"/>
   <polygon class="fil0" points="-43.11,73.8 -43.06,87.86 -37.94,92.14 -32.83,96.42 -32.66,83.42 -32.55,70.36 -19.38,70.24 -6.26,70.08 -10.6,64.91 -14.88,59.8 -28.99,59.8 -43.11,59.8 "/>
   <polygon class="fil0" points="4.13,84.25 4.13,96.48 17.75,96.48 31.36,96.48 31.36,91.2 31.36,85.92 23.31,85.92 15.25,85.92 15.25,83.14 15.25,80.36 23.31,80.36 31.36,80.36 31.36,76.19 31.36,72.02 17.75,72.02 4.13,72.02 "/>
   <path class="fil0" d="M-26.44 82.47l0 5.45 4.17 4.11 4.11 4.11 0.17 -5.55 0.17 -5.51 3.89 -0.11c2.16,-0.05 4.61,-0.11 5.56,-0.11 1.61,-0.05 1.61,-0.11 -2.23,-3.94l-3.83 -3.89 -6 0 -6.01 0 0 5.44 0 0z"/>
  </g>
 </g>
</svg>
