<?xml version="1.0" encoding="utf-8"?>
<!-- Generator: Adobe Illustrator 22.1.0, SVG Export Plug-In . SVG Version: 6.00 Build 0)  -->
<svg version="1.1" id="Laag_1" xmlns="http://www.w3.org/2000/svg" xmlns:xlink="http://www.w3.org/1999/xlink" x="0px" y="0px"
	 viewBox="0 0 177.6 17.4" style="enable-background:new 0 0 177.6 17.4;" xml:space="preserve">
<style type="text/css">
	.st0{clip-path:url(#SVGID_2_);fill-rule:evenodd;clip-rule:evenodd;fill:#FFFFFF;}
	.st1{fill-rule:evenodd;clip-rule:evenodd;fill:#FFFFFF;}
</style>
<g>
	<g>
		<defs>
			<rect id="SVGID_1_" x="0.6" y="0.5" width="175.6" height="18.2"/>
		</defs>
		<clipPath id="SVGID_2_">
			<use xlink:href="#SVGID_1_"  style="overflow:visible;"/>
		</clipPath>
		<path class="st0" d="M54.2,7l6.7-6.3h5l-7,6.3l3.5,8H57L54.2,7 M53.2,7.4l-2.1,7.6h-4.3l4-14.2h4.3L53.3,7"/>
		<path class="st0" d="M5.4,9.2c-0.2,0.6-1.6,3.5,0.5,3.3c1.5-0.1,1.9-1.4,2.1-2.1l2.7-9.6H15l-2.7,9.4c-0.2,0.6-0.7,2.4-2,3.4
			c-1.7,1.4-3.9,1.7-5.3,1.7c-1.8,0-3.7-0.4-4.4-1.9c-0.4-0.9,0-3.2,0.5-4.3H5.4"/>
	</g>
	<path class="st1" d="M95.8,9.2c-0.2,0.6-1.6,3.5,0.5,3.3c1.5-0.1,1.9-1.4,2.1-2.1l2.7-9.6h4.3l-2.7,9.4c-0.2,0.6-0.7,2.4-2,3.4
		c-1.7,1.4-3.9,1.7-5.3,1.7c-1.8,0-3.7-0.4-4.4-1.9c-0.4-0.9,0-3.2,0.5-4.3H95.8"/>
	<path class="st1" d="M12.1,15.1h4.2l1.8-2.9h6.1l0.3,2.9h4.8l-2-14.2h-5.2L12.1,15.1 M19.9,9.6l3.8-6h0.1l0.3,6H19.9z"/>
	<path class="st1" d="M42.7,5.3c0.2-1.4-0.7-2-1.9-2c-2.6,0-4,2.2-4.7,4.8c-0.2,0.9-1.2,4.4,2,4.4c2.2,0,2.9-1.5,3.2-2.1h4.4
		c-1.3,4.5-6.3,4.8-8.3,4.8c-1.5,0-4-0.2-5.3-1.9c-1.2-1.7-0.9-3.9-0.4-5.4c0.5-1.9,1.6-3.9,3.5-5.4c2-1.7,4.2-2.1,6.4-2.1
		c2.5,0,4.2,0.6,5.1,1.7c0.9,1.2,0.5,2.5,0.4,3H42.7"/>
	<path class="st1" d="M105.6,8c-1.5,5.3,1.7,7.4,5.8,7.4c3.6,0,8.5-1.7,10.1-7.4c1-3.5,0.5-7.5-5.6-7.5c-1.1,0-4.1,0.2-6.5,2
		C106.8,4.2,105.8,7.1,105.6,8 M109.9,8c0.7-2.4,2.1-4.7,4.9-4.7c0.9,0,1.9,0.2,2.3,1c0.3,0.6,0.5,1.6,0,3.6c-0.6,2-1.8,4.6-4.8,4.6
		C109.4,12.5,109.3,10.3,109.9,8z"/>
	<polyline class="st1" points="125.8,0.9 131.7,0.9 133.8,11.4 136.8,0.9 140.5,0.9 136.5,15.1 130.8,15.1 128.6,4 125.5,15.1 
		121.8,15.1 125.8,0.9 	"/>
	<polyline class="st1" points="143.5,0.9 155,0.9 154.2,3.6 146.9,3.6 146.1,6.6 152.9,6.6 152.2,9.3 145.3,9.3 144.5,12.3 
		151.9,12.3 151.1,15.1 139.5,15.1 143.5,0.9 	"/>
	<g>
		<path class="st1" d="M158.6,10.5c-0.1,0.6-0.6,2.2,2,2.2c0.4,0,2.3,0,2.7-1.6c0.2-0.7,0-1.1-0.9-1.4l-3.5-0.9
			c-1-0.3-3.5-0.9-2.7-3.9c0.6-2.3,3.1-4.5,7.7-4.5c6,0,5.4,3,5,4.5h-4.3c0.1-0.4,0.6-2-1.5-2c-1.2,0-2.2,0.6-2.4,1.5
			c-0.3,1,0.6,1.3,1.1,1.5l2.7,0.7c1.9,0.5,4.1,1.1,3.3,4.1c-0.9,3.2-4.2,4.6-8.1,4.6c-1.6,0-4.1-0.2-5.1-1.7
			c-0.8-1.1-0.4-2.5-0.3-3.2H158.6"/>
		<path class="st1" d="M173.9,3c0.4,0,0.7,0,0.8-0.3c0.1-0.3-0.3-0.3-0.6-0.3h-0.6L173.4,3H173.9 M173.8,3.3h-0.5l-0.3,1h-0.5
			l0.6-2.2h0.8c0.8,0,1.1,0.1,1.1,0.6c0,0.4-0.5,0.6-0.8,0.7l0.6,1h-0.6L173.8,3.3z M174.4,1.6c-1.1,0-2.2,0.7-2.4,1.5
			c-0.2,0.9,0.4,1.5,1.5,1.5c1.1,0,1.8-0.7,2.1-1.5C175.9,2.3,175.5,1.6,174.4,1.6z M174.5,1.2c1.3,0,2,0.8,1.7,2
			c-0.3,1.2-1.4,2-2.7,2c-1.3,0-2.3-0.8-2-2C171.8,2,173.2,1.2,174.5,1.2z"/>
	</g>
	<path class="st1" d="M90.2,1.1c1-0.7-20.7-0.7-20.1,0c-0.6-0.7-4.9,14.4-3.9,13.7c-1,0.7,20.7,0.7,20.1,0
		C86.9,15.5,91.2,0.3,90.2,1.1z M85.8,9.2c-0.2,0.5-0.7,0.5-0.7,0.5l-10.2,0l0.3-0.8c0,0,2.8,0,5.6,0c0,0,0.4,0,0.6-0.4l0.3-0.8
		c2.3,0,4.6,0,4.6,0L85.8,9.2z M86.6,7.2l-9.6,0c-1.8,0-2.1,1.2-2.1,1.2l-0.5,1.3h-5.4L70.2,7c0,0,0.6-1.4,2.5-1.3h14.5L86.6,7.2z"
		/>
</g>
</svg>
