<?xml version="1.0" encoding="UTF-8"?>
<!DOCTYPE svg PUBLIC "-//W3C//DTD SVG 1.1//EN" "http://www.w3.org/Graphics/SVG/1.1/DTD/svg11.dtd">
<!-- Creator: CorelDRAW 2018 (64-Bit Evaluation Version) -->
<svg xmlns="http://www.w3.org/2000/svg" xml:space="preserve" width="1772px" height="1772px" version="1.1" style="shape-rendering:geometricPrecision; text-rendering:geometricPrecision; image-rendering:optimizeQuality; fill-rule:evenodd; clip-rule:evenodd"
viewBox="0 0 1772 1772"
 xmlns:xlink="http://www.w3.org/1999/xlink">
 <defs>
  <style type="text/css">
   <![CDATA[
    .fil0 {fill:#FEFEFE}
   ]]>
  </style>
 </defs>
 <g id="Layer_x0020_1">
  <metadata id="CorelCorpID_0Corel-Layer"/>
  <g id="_2061678883136">
   <path class="fil0" d="M138.76 562.53c0.51,12.16 129.7,644.43 132.74,647.47 1.01,1.01 23.81,-6.59 50.66,-17.74 170.73,-70.42 358.19,-73.46 530.44,-8.61l47.11 17.73 34.45 -14.69c92.21,-39.01 176.31,-52.69 302.97,-48.64 100.82,3.04 158.57,15.71 231.02,51.17 25.33,12.16 47.11,21.28 48.13,20.27 3.04,-3.04 142.36,-635.82 142.36,-646.96 0,-8.11 -39.52,-8.61 -759.94,-8.61 -720.42,0 -759.94,0.5 -759.94,8.61l0 0zm562.36 166.17c24.31,14.19 41.03,49.65 44.58,94.23l2.53 34.96 -82.07 0 -81.57 0 0 20.27c0,29.38 17.23,45.59 48.13,45.59 22.29,0 43.06,-12.16 43.06,-25.33 0,-3.04 14.19,-5.07 32.94,-5.07 36.98,0 39.01,3.05 24.82,33.44 -13.68,28.37 -44.58,40.03 -105.89,40.03 -56.23,-0.51 -72.95,-6.08 -95.24,-32.43 -18.75,-22.8 -25.84,-48.64 -26.34,-96.77 0,-94.73 29.89,-122.6 129.18,-120.07 37.5,1.02 52.19,3.55 65.87,11.15l0 0zm710.28 -7.09c25.84,6.59 44.08,23.81 47.63,43.57l3.54 16.72 -39.01 0c-22.29,0 -38.5,-2.03 -38.5,-5.07 0,-9.62 -20.27,-25.33 -32.93,-25.33 -41.04,0 -58.77,39.52 -24.32,55.22 7.09,3.55 31.41,9.63 54.21,13.68 67.89,13.17 84.1,26.85 84.1,71.94 0,48.64 -30.91,66.88 -114.5,66.88 -77.51,0 -106.39,-13.68 -118.55,-55.23l-4.56 -15.7 39.52 0c36.98,0 39.52,0.51 45.09,12.66 15.2,33.44 85.11,27.87 81.06,-6.08 -2.54,-19.75 -22.29,-30.9 -70.93,-39.01 -24.32,-4.05 -51.17,-11.14 -59.78,-15.7 -30.91,-15.71 -38,-65.86 -14.7,-96.26 5.58,-6.59 20.78,-15.7 33.95,-19.76 28.37,-8.61 101.83,-10.13 128.68,-2.53l0 0zm-1004.13 90.68l0 91.2 40.53 0 40.53 0 0 25.33 0 25.33 -78.53 0 -78.52 0 0 -116.52 0 -116.53 37.99 0 38 0 0 91.19 0 0zm457.99 -14.69c14.19,40.53 27.87,74.98 30.4,76 2.53,1.01 13.17,-23.31 23.81,-53.7 11.15,-30.91 23.31,-65.36 27.87,-77.52l8.1 -21.28 39.52 0 39.52 0 -23.82 59.28c-13.17,32.93 -33.94,85.62 -46.1,117.03l-21.78 57.25 -48.13 -1.52 -48.64 -1.52 -44.07 -115.51 -44.08 -115.51 41.03 1.52 41.04 1.52 25.33 73.97 0 -0.01zm271.55 40.03l0 116.52 -35.46 0 -35.46 0 0 -116.52 0 -116.53 35.46 0 35.46 0 0 116.53z"/>
   <path class="fil0" d="M595.23 769.74c-6.08,7.6 -10.64,20.77 -10.64,30.4l0 17.22 45.6 0c50.66,0 51.67,-1.01 40.02,-34.96 -7.09,-19.25 -17.73,-25.84 -44.58,-25.84 -15.71,0 -22.29,3.05 -30.4,13.18l0 0z"/>
   <path class="fil0" d="M1356.69 1207.46c-28.37,11.65 -36.98,56.75 -14.69,78.53 28.37,28.88 83.59,8.11 83.59,-31.41 0,-22.8 -7.09,-34.96 -25.33,-44.58 -16.21,-8.61 -27.36,-9.12 -43.57,-2.54l0 0zm42.55 18.24c14.7,10.13 15.2,38.51 1.02,52.69 -21.28,21.28 -57.25,5.57 -57.25,-25.33 0,-29.39 31.41,-45.09 56.23,-27.36z"/>
  </g>
 </g>
</svg>
