<?xml version="1.0" encoding="UTF-8"?>
<!DOCTYPE svg PUBLIC "-//W3C//DTD SVG 1.1//EN" "http://www.w3.org/Graphics/SVG/1.1/DTD/svg11.dtd">
<!-- Creator: CorelDRAW 2018 (64-Bit Evaluation Version) -->
<svg xmlns="http://www.w3.org/2000/svg" xml:space="preserve" width="3508px" height="2480px" version="1.1" style="shape-rendering:geometricPrecision; text-rendering:geometricPrecision; image-rendering:optimizeQuality; fill-rule:evenodd; clip-rule:evenodd"
viewBox="0 0 3508 2480.4"
 xmlns:xlink="http://www.w3.org/1999/xlink">
 <defs>
  <style type="text/css">
   <![CDATA[
    .fil0 {fill:#EBECEC}
   ]]>
  </style>
 </defs>
 <g id="Layer_x0020_1">
  <metadata id="CorelCorpID_0Corel-Layer"/>
  <g id="_2048585277840">
   <g>
    <path class="fil0" d="M3070.57 936.59c-0.63,0.63 -8.59,1.67 -17.81,2.09 -9.22,0.63 -22,2.31 -28.29,3.56 -6.28,1.47 -13.4,2.73 -15.71,3.15 -5.66,0.84 -35.62,11.1 -46.09,15.71 -13.41,5.87 -16.76,6.91 -18.23,6.71 -1.05,-0.22 -1.67,0.41 -1.67,1.67 0,1.05 -0.84,2.1 -2.1,2.1 -4.61,0 -53.64,33.52 -57.2,39.38 -1.04,1.47 -2.72,1.89 -3.98,1.26 -1.46,-0.84 -1.67,-0.42 -0.84,0.84 0.63,1.26 -0.62,3.35 -3.35,4.82 -4.82,2.51 -18.85,16.55 -16.55,16.55 0.63,0 -1.68,2.72 -5.03,6.08 -7.96,7.54 -15.71,16.97 -15.71,18.85 0,0.63 -2.51,4.19 -5.66,7.75 -3.35,3.77 -6.07,7.76 -6.49,9.22 -0.42,1.47 -3.35,6.71 -6.71,11.74 -3.56,4.81 -6.28,9.84 -6.28,11.1 0,1.26 -0.84,2.3 -2.1,2.3 -1.05,0 -1.88,0.63 -1.67,1.47 0.21,1.05 -1.68,6.08 -3.98,11.52 -5.03,10.9 -17.39,46.31 -18.65,53.01 -0.42,2.31 -1.68,9.43 -2.93,15.71 -1.26,6.29 -2.73,14.88 -3.36,18.86 -1.67,11.31 -1.88,67.67 -0.41,71.65 1.46,3.56 15.92,3.77 263.56,3.77l261.89 0 -1.05 6.71c-1.46,11.31 -2.72,15.92 -5.44,20.95 -1.47,2.72 -2.31,4.82 -2.1,4.82 1.47,0 -2.93,13.41 -6.28,19.27 -2.1,3.78 -3.36,6.92 -2.94,6.92 1.68,0 -10.05,20.74 -14.24,25.35 -2.1,2.09 -2.94,3.98 -2.1,3.98 0.84,0.21 -0.42,1.89 -2.93,3.98 -2.52,2.1 -3.98,4.4 -3.35,5.24 0.83,0.63 0.2,1.26 -1.05,1.26 -1.47,0 -2.52,1.04 -2.52,2.09 0,6.92 -32.05,37.09 -56.14,53.01 -15.72,10.26 -45.47,24.72 -45.47,22.21 0,-0.21 -2.09,0.62 -4.82,2.09 -2.72,1.47 -6.91,3.14 -9.43,3.56 -8.8,2.1 -12.99,2.94 -19.69,4.19l-6.91 1.26 0 -73.54 0 -73.54 -165.52 0 -165.51 0 1.25 5.87c0.84,3.14 1.47,6.49 1.68,7.75 0,1.05 0.63,2.51 1.26,3.14 0.63,0.63 2.93,6.29 5.03,12.58 2.09,6.28 4.82,12.78 6.07,14.03 1.05,1.47 1.26,2.73 0.42,2.73 -1.05,0 -0.21,1.67 1.47,3.56 1.67,2.09 4.4,7.12 5.86,11.1 1.47,3.98 3.99,8.8 5.66,10.69 1.47,1.88 2.31,3.77 1.89,4.19 -0.42,0.42 49.86,0.63 112.08,0.21l112.93 -0.42 0 74.16 0 74.38 6.92 1.26c18.01,3.35 74.58,1.26 86.32,-3.14 2.93,-1.05 6.07,-1.89 6.91,-1.68 2.51,0.63 15.5,-2.51 28.49,-7.12 6.71,-2.31 13.2,-4.4 14.67,-4.82 3.77,-0.84 18.23,-7.12 31.22,-13.62 6.49,-3.56 11.94,-5.87 11.94,-5.24 0,0.63 1.88,-0.63 4.19,-2.72 2.51,-1.89 4.82,-3.14 5.66,-2.93 0.62,0.41 1.88,0 2.51,-1.05 0.63,-1.05 6.49,-5.45 12.78,-10.06 6.28,-4.61 11.94,-9.01 12.15,-9.85 0.42,-1.04 2.1,-1.67 3.56,-1.67 1.47,0 3.15,-0.63 3.56,-1.68 0.42,-0.84 5.66,-5.86 11.95,-10.89 6.07,-5.24 16.55,-16.13 23.25,-24.51 6.71,-8.18 12.78,-14.46 13.41,-13.83 0.63,0.83 1.26,0.21 1.26,-1.05 0,-3.35 15.08,-25.56 17.39,-25.56 0.84,0 1.25,-0.84 0.63,-1.68 -0.63,-1.05 0.62,-3.77 2.72,-5.86 2.09,-2.31 4.4,-6.71 5.24,-9.85 0.63,-3.14 2.3,-5.66 3.35,-5.66 1.26,0 2.09,-1.25 2.09,-2.93 0,-1.47 2.1,-7.33 4.61,-12.99 2.52,-5.66 4.82,-11.52 5.03,-13.2 0.42,-1.68 1.47,-3.56 2.52,-4.19 1.04,-0.63 1.88,-2.72 2.09,-4.4 0.21,-5.03 2.1,-11.94 4.4,-16.34 1.26,-2.31 1.68,-4.61 1.05,-5.24 -0.63,-0.63 -0.21,-2.93 1.05,-5.24 2.09,-3.98 3.56,-11.31 5.44,-25.56 0.21,-2.93 1.68,-13.82 3.15,-24.51 2.3,-18.65 1.88,-44 -1.05,-55.73l-1.47 -5.66 -262.73 0 -262.72 0 2.09 -5.24c1.05,-2.93 1.89,-6.07 1.68,-6.91 -0.63,-2.51 2.93,-15.92 5.24,-20.32 1.25,-2.31 2.51,-5.24 2.72,-6.29 0.21,-1.25 1.67,-5.03 3.14,-8.38 1.47,-3.56 2.72,-6.7 2.72,-7.33 0.84,-4.19 8.18,-16.76 9.85,-16.76 1.26,0 1.68,-0.84 0.84,-2.1 -0.63,-1.04 0.63,-3.77 2.93,-6.07 2.1,-2.1 4.61,-6.08 5.45,-8.59 0.84,-2.52 4.82,-7.96 9.01,-12.15 3.98,-4.19 7.12,-7.97 6.91,-8.38 -0.21,-0.21 5.87,-6.92 13.41,-14.46 7.54,-7.75 13.62,-13.41 13.62,-12.57 0,0.84 2.52,-1.26 5.87,-4.4 7.12,-7.33 40.22,-27.66 46.51,-28.71 0.63,0 3.14,-1.25 5.87,-2.72 2.51,-1.46 5.65,-2.09 6.7,-1.46 1.26,0.62 2.1,0.41 2.1,-0.63 0,-1.89 8.59,-4.82 27.86,-9.43l11.94 -2.93 0 74.16 0 73.96 165.1 0c90.93,0 165.72,-0.63 166.35,-1.26 0.63,-0.63 -0.42,-5.65 -2.51,-11.52 -2.1,-5.66 -3.35,-10.27 -2.94,-10.27 0.63,0 -0.21,-2.09 -1.67,-4.81 -1.47,-2.52 -2.73,-5.24 -2.94,-6.29 -0.21,-0.84 -0.62,-1.89 -0.83,-2.51 -0.21,-0.63 -0.63,-1.68 -1.05,-2.73 -0.21,-0.84 -2.51,-6.28 -5.24,-11.94 -2.72,-5.87 -5.03,-10.89 -5.24,-11.52 0,-0.63 -1.88,-3.56 -3.98,-6.92l-3.77 -5.65 -112.92 0 -112.93 0 0 -74.17c0,-60.13 -0.63,-74.38 -2.73,-75.21 -4.19,-1.68 -44.2,-4.2 -45.46,-2.94l0 0z"/>
    <path class="fil0" d="M713.14 1168.94l0.42 223.55 39.8 0.62 39.81 0.63 0 -71.86c0,-39.39 0.84,-71.65 1.68,-71.65 1.67,0 14.66,20.32 15.29,24.09 0.21,1.05 1.47,2.93 2.93,4.19 3.78,3.14 39.39,60.34 39.39,63.27 0,1.47 0.84,2.73 1.68,2.73 0.84,0 7.96,10.89 15.71,24.09l14.46 23.89 48.81 0.2c26.61,0 48.61,-0.62 48.61,-1.67 0,-1.26 -9.85,-17.18 -14.04,-22.42 -7.96,-10.06 -21.58,-30.59 -21.58,-32.26 0,-1.26 -0.62,-2.31 -1.67,-2.31 -1.68,0 -14.46,-18.85 -14.67,-21.58 0,-1.05 -1.46,-2.93 -3.14,-4.19 -1.68,-1.47 -6.49,-7.75 -10.69,-14.04 -4.19,-6.28 -9,-13.41 -10.89,-15.71 -5.87,-7.75 -27.03,-38.76 -30.38,-45.04 -1.88,-3.36 -4.19,-5.45 -5.24,-4.61 -1.88,1.46 3.56,-6.08 5.45,-7.96 0.63,-0.63 3.56,-4.4 6.29,-8.39 2.72,-3.98 5.65,-7.75 6.28,-8.38 0.63,-0.62 5.24,-6.7 10.48,-13.61 5.23,-6.92 9.84,-12.99 10.47,-13.62 0.63,-0.63 3.56,-4.4 6.29,-8.38 2.72,-3.98 7.96,-10.06 11.31,-13.41 3.56,-3.35 5.03,-5.24 3.35,-4.4 -3.14,1.67 4.61,-8.17 10.27,-13.2 1.67,-1.26 2.51,-2.51 1.67,-2.51 -1.46,0 1.89,-4.61 10.69,-14.25 2.51,-2.94 4.61,-5.87 4.61,-6.5 0,-0.63 2.72,-4.19 5.87,-7.96 11.1,-12.99 12.57,-14.87 11.52,-16.13 -0.84,-0.63 -22,-1.26 -47.35,-1.26l-46.09 0 -5.45 5.87c-2.93,3.35 -5.66,7.33 -6.08,8.8 -0.83,3.14 -12.99,19.48 -15.5,20.53 -1.05,0.42 -1.68,1.68 -1.68,2.72 0,1.68 -31.84,48.19 -39.18,57.41 -0.83,1.05 -5.44,7.54 -10.05,14.46l-8.38 12.15 -0.63 -131.99 -0.42 -132.21 -40.44 -0.63 -40.22 -0.62 0.63 223.55 0 0z"/>
    <path class="fil0" d="M1480.37 1165.17c0,206.57 0.21,218.94 3.77,219.98 4.19,1.05 16.76,3.77 18.23,3.56 0.42,0 3.98,1.05 7.75,2.1 7.96,2.31 25.14,4.61 33.52,4.61 3.15,0 5.45,0.63 5.03,1.26 -0.42,0.62 4.4,1.25 10.9,1.25 6.7,0.21 19.48,0.42 28.7,0.42 9.22,0.21 22.42,0 29.33,-0.63 6.91,-0.62 14.25,-1.25 16.34,-1.46 1.89,-0.21 3.56,-1.05 3.56,-2.1 0,-1.04 1.26,-1.46 2.73,-0.83 1.26,0.41 4.19,0 6.28,-1.05 2.1,-1.05 5.45,-2.31 7.34,-2.73 1.88,-0.42 6.49,-1.88 9.84,-3.35 3.57,-1.46 7.55,-2.3 9.01,-2.09 1.26,0.21 2.52,-0.63 2.52,-1.89 0,-1.26 1.67,-2.72 3.77,-3.56 7.33,-2.51 32.05,-22.21 38.55,-30.59 3.77,-4.82 7.33,-9.22 7.96,-9.85 2.51,-2.3 11.94,-18.22 14.87,-24.72 1.47,-3.56 3.78,-6.7 4.61,-6.7 1.05,0 1.05,-1.05 0.42,-2.1 -0.83,-1.26 -0.21,-3.56 1.05,-5.24 1.47,-1.67 1.89,-3.14 1.26,-3.14 -0.84,0 -0.42,-1.89 0.84,-4.4 2.51,-4.4 3.77,-9.22 5.02,-18.65 0.42,-2.93 1.47,-9 2.52,-13.61 2.09,-11.11 1.88,-58.25 -0.21,-71.24 -1.05,-5.86 -1.89,-11.52 -2.1,-12.57 -1.67,-12.78 -14.24,-44.21 -18.85,-47.56 -1.05,-0.84 -1.47,-1.67 -0.42,-1.67 0.84,0 -1.05,-2.94 -4.19,-6.5 -3.35,-3.56 -5.66,-7.54 -5.24,-8.59 0.21,-1.05 -0.21,-1.47 -1.26,-0.84 -0.84,0.63 -4.19,-1.46 -7.12,-4.61 -5.87,-6.07 -25.56,-16.97 -33.94,-18.43 -2.93,-0.42 -7.54,-1.68 -10.06,-2.73 -2.72,-1.04 -15.08,-1.67 -27.86,-1.46 -27.45,0.21 -48.82,6.28 -61.6,17.39 -4.4,3.77 -8.59,6.07 -9.43,5.44 -0.63,-0.63 -1.26,-0.21 -1.26,1.05 0,1.47 -1.88,4.4 -3.98,6.5 -2.3,2.3 -5.65,7.12 -7.54,10.47 -1.67,3.56 -3.56,6.5 -3.98,6.5 -0.63,0 -0.42,-5.03 0.21,-11.11 1.47,-15.5 1.47,-11.73 1.05,-96.37l-0.42 -76.89 -38.76 0 -38.76 0 0 218.73 0 0zm157.34 -15.09c4.61,1.26 8.17,3.14 8.17,4.19 0,1.05 0.84,1.47 1.89,0.63 5.45,-3.14 20.53,21.37 24.93,40.44 2.94,12.78 2.73,64.52 -0.42,78.14 -7.75,33.11 -26.61,54.9 -52.58,60.34 -13.41,2.73 -48.82,1.05 -58.04,-2.93 -7.54,-3.14 -3.77,-114.81 4.19,-127.59 0.63,-1.26 1.68,-3.98 1.89,-6.08 0.84,-5.03 6.07,-15.09 13.62,-26.19 6.49,-9.43 18.85,-18.86 26.81,-20.32 2.52,-0.42 5.24,-1.47 5.87,-2.1 1.89,-1.88 15.29,-1.04 23.68,1.47l-0.01 0z"/>
    <path class="fil0" d="M2416.89 1169.56l0 222.93 39.39 0.63 39.18 0.62 -0.63 -48.18c-0.21,-26.61 -0.21,-60.34 0,-75.43 0.63,-26.4 0.63,-27.03 4.19,-21.58 2.09,3.14 3.98,6.71 4.19,8.17 0.42,1.26 2.72,4.82 5.45,7.75 2.51,2.94 4.19,5.66 3.77,6.08 -0.42,0.63 0.42,2.51 2.09,4.4 1.68,2.1 3.15,4.4 3.35,5.66 0.42,1.04 1.68,3.56 3.15,5.23 1.46,1.68 2.72,3.78 2.72,4.61 0,1.05 1.47,3.35 3.35,5.24 1.89,2.1 9.22,13.2 16.55,24.72 7.13,11.53 20.33,32.48 29.13,46.52l16.34 25.77 47.98 0c26.4,0 47.97,-0.84 47.97,-1.68 0,-1.05 -2.72,-5.66 -6.07,-10.27 -3.35,-4.82 -5.66,-9.22 -5.03,-9.84 0.84,-0.63 0.42,-1.26 -0.84,-1.26 -1.05,0 -10.47,-12.36 -20.74,-27.24 -10.27,-15.08 -27.03,-39.6 -37.5,-54.47 -30.8,-44 -35.62,-51.33 -34.78,-52.17 0.21,-0.42 -0.84,-1.68 -2.73,-2.72 -4.6,-2.73 -4.18,-6.5 1.89,-12.99 2.72,-2.94 4.61,-5.45 3.98,-5.45 -1.46,0 15.51,-20.95 19.91,-24.72 1.67,-1.26 2.3,-2.52 1.04,-2.52 -1.04,0 -0.42,-1.25 1.26,-2.72 1.68,-1.47 5.45,-5.87 8.38,-9.85 2.72,-3.98 5.87,-8.38 6.71,-9.42 11.31,-14.46 20.74,-26.82 31,-40.86 4.82,-6.29 9.43,-11.94 10.48,-12.15 1.26,-0.42 2.09,-1.89 2.09,-3.15 0,-1.46 2.52,-5.44 5.87,-8.79 12.36,-13.62 15.29,-12.58 -37.92,-11.95l-48.61 0.63 -4.82 5.03c-2.72,2.93 -3.98,5.24 -3.14,5.24 0.84,0 0.63,0.84 -0.63,1.67 -1.05,0.84 -4.19,5.03 -6.91,9.43 -2.73,4.4 -5.87,9.01 -7.13,10.48 -1.46,1.26 -5.23,6.7 -8.79,11.94 -10.48,15.92 -28.92,40.85 -31.22,42.32 -1.26,0.84 -1.68,1.68 -0.63,1.68 1.47,0 -12.15,20.53 -15.09,23.04 -0.83,0.63 -3.56,4.4 -6.07,8.38l-4.61 7.34 0 -134.72 0 -134.51 -38.76 0 -38.76 0 0 223.13 0 0z"/>
    <path class="fil0" d="M269.39 973.88c-17.81,0.63 -34.36,1.89 -36.66,2.51 -2.31,0.63 -6.5,1.68 -9.43,2.31 -11.32,1.89 -40.02,13.83 -49.66,20.32 -5.44,3.77 -10.47,7.13 -10.89,7.13 -0.63,0 -5.24,4.6 -10.48,10.47 -5.23,5.66 -10.26,10.9 -10.89,11.52 -2.1,1.68 -14.46,25.15 -13.2,25.15 0.42,0 0,1.88 -1.26,4.39 -4.19,7.76 -5.23,15.09 -5.23,39.6 0,28.92 0.83,33.11 11.1,53.85 2.93,6.07 6.91,12.78 9.01,15.08 2.09,2.1 3.14,4.61 2.3,5.66 -0.84,0.84 -0.42,0.84 0.84,0.21 1.26,-0.84 4.61,1.26 7.54,4.4 5.24,5.65 15.3,14.46 15.3,13.2 0,-0.84 9.43,2.93 28.28,11.94 9.85,4.4 19.91,8.8 22.63,9.64 2.51,0.84 4.61,2.51 4.61,3.77 0,1.26 0.63,1.88 1.26,1.05 0.83,-0.63 5.02,0.62 9.42,2.72 4.4,2.3 9.22,4.19 10.48,4.19 4.19,0 28.91,15.3 27.86,17.18 -0.62,0.84 0.21,1.68 1.89,1.68 3.77,0 11.1,8.59 14.88,17.6 5.23,12.78 1.25,45.25 -5.66,45.25 -1.26,0 -1.68,0.63 -0.84,1.26 3.77,3.98 -18.86,18.43 -33.1,21.16 -18.86,3.56 -71.87,1.05 -80.87,-3.77 -2.52,-1.26 -4.82,-1.89 -5.24,-1.26 -0.63,0.63 -5.45,-0.42 -10.9,-2.1 -16.76,-5.23 -16.55,-5.23 -18.22,2.73 -0.63,3.98 -0.84,7.96 -0.21,8.8 1.04,1.67 -1.89,36.66 -3.98,50.07 -1.05,6.08 -0.63,6.71 6.28,9.01 3.98,1.26 10.69,2.93 14.88,3.35 4.19,0.42 8.8,1.68 10.05,2.52 1.26,0.83 22.42,1.46 47.14,1.67 32.9,0.21 46.72,-0.42 51.54,-2.51 3.56,-1.47 8.38,-2.31 10.69,-2.1 2.09,0.42 4.4,0 5.03,-0.63 0.83,-1.25 22.62,-10.05 28.28,-11.52 1.26,-0.21 6.7,-3.56 12.36,-7.12 5.87,-3.77 11.73,-6.71 13.2,-6.71 1.47,0 2.52,-0.83 2.31,-1.88 -0.42,-1.05 -0.21,-1.89 0.42,-1.89 1.67,0.21 18.85,-17.6 18.85,-19.48 0,-1.05 0.63,-1.89 1.68,-1.89 0.83,0 3.14,-3.14 5.44,-6.91 10.06,-17.39 11.53,-20.32 10.48,-20.32 -0.84,0 -0.21,-1.47 1.47,-3.36 1.46,-1.88 2.93,-4.82 3.14,-6.7 1.46,-12.15 3.56,-22.84 4.82,-25.14 1.25,-2.1 -0.63,-31.01 -2.52,-40.23 -3.14,-14.87 -13.2,-34.57 -21.79,-42.95 -3.77,-3.77 -6.91,-7.75 -6.91,-9.22 0,-1.25 -1.26,-2.3 -2.72,-2.3 -1.47,0 -4.61,-1.68 -6.92,-3.77 -2.09,-2.1 -10.68,-6.92 -18.64,-10.69 -8.17,-3.77 -15.3,-7.96 -16.14,-9.22 -0.83,-1.25 -2.09,-1.88 -2.72,-1.04 -0.84,0.62 -9.01,-2.52 -18.44,-7.34 -9.42,-4.61 -17.39,-8.17 -17.39,-7.54 -0.21,0.42 -2.51,-1.05 -5.02,-3.35 -2.52,-2.31 -5.24,-3.98 -6.08,-3.77 -2.72,0.63 -19.07,-7.96 -23.26,-12.36 -2.3,-2.52 -4.19,-3.77 -4.19,-2.73 0,0.84 -3.77,-2.09 -8.38,-6.91 -9.42,-10.06 -13.62,-22.63 -11.31,-33.73 0.84,-4.19 1.67,-7.96 1.67,-8.59 1.26,-7.13 22.21,-29.54 22.21,-23.68 0,0.84 0.84,0.63 1.68,-0.42 5.24,-7.54 37.29,-12.78 59.08,-9.63 8.59,1.25 19.48,2.72 24.09,3.14 9.22,1.05 15.72,2.3 22.63,4.61 10.48,3.56 12.36,2.72 11.32,-4.82 -0.84,-3.98 -0.42,-6.92 1.04,-6.92 1.26,0 1.68,-3.77 0.84,-10.05 -0.84,-5.45 -0.42,-17.39 0.63,-26.61 1.05,-9.22 1.26,-17.6 0.21,-18.44 -1.68,-1.88 -3.98,-2.3 -28.28,-4.61 -7.97,-0.83 -16.14,-2.09 -17.81,-2.93 -1.68,-0.84 -17.81,-0.84 -35.62,0l0 0z"/>
    <path class="fil0" d="M1432.39 1082.62c-3.98,1.04 -9.01,1.46 -11.1,1.04 -2.1,-0.41 -3.77,-0.2 -3.77,0.63 0,0.84 -4.19,3.15 -9.43,5.24 -5.24,2.31 -12.99,7.12 -17.39,11.11 -4.19,3.77 -8.38,7.12 -9.22,7.12 -1.05,0 -1.68,1.05 -1.68,2.51 0,1.26 -2.09,4.61 -4.39,7.12 -2.52,2.73 -7.76,11.32 -11.53,19.07 -7.54,15.3 -8.17,16.13 -5.03,4.82 1.26,-3.98 2.73,-17.18 3.35,-29.12 0.63,-12.15 1.47,-22.42 1.89,-23.05 0.42,-0.63 -16.76,-1.05 -37.92,-0.63l-38.55 0.63 0 151.9 0 151.68 40.43 -0.41 40.23 -0.63 0.21 -77.52c0.21,-79.62 1.05,-94.07 4.82,-101.2 1.26,-2.3 1.67,-4.61 1.05,-5.24 -1.47,-1.46 9.84,-24.51 12.15,-24.51 0.84,0 1.47,-0.63 1.26,-1.67 -0.84,-2.1 10.89,-13.83 17.18,-17.39 8.38,-4.4 10.47,-4.82 29.33,-4.82l17.81 -0.21 0.42 -22.42c0.2,-12.36 1.46,-28.28 2.51,-35.41 3.35,-20.32 -1.05,-23.67 -22.63,-18.64l0 0z"/>
    <path class="fil0" d="M503 1087.23c-34.99,11.31 -53.85,25.14 -71.87,53 -5.23,7.97 -10.47,15.3 -11.73,16.14 -1.26,0.83 -1.68,1.67 -0.84,1.67 0.63,0 -0.84,5.45 -3.35,12.15 -2.72,6.71 -5.66,15.93 -6.49,20.54 -1.05,4.39 -1.89,8.59 -2.1,9.21 -3.98,14.25 -5.24,53.85 -2.51,72.29 1.04,6.91 2.3,14.03 2.51,15.71 1.47,10.06 4.19,20.74 6.71,26.61 1.46,3.77 2.09,6.91 1.46,6.91 -0.84,0 0,1.68 1.89,3.56 1.67,2.1 3.35,4.4 3.56,5.24 0,0.84 2.09,4.82 4.4,8.8 2.3,4.19 4.19,7.75 4.19,8.38 -0.21,1.89 22,23.05 27.23,26.19 10.48,6.28 28.5,15.08 32.9,15.92 2.3,0.42 6.07,1.68 8.38,2.94 2.3,1.25 4.61,1.67 5.03,1.25 0.63,-0.63 4.61,0.21 9.22,1.68 8.17,2.93 67.67,3.35 84.64,0.63 3.98,-0.63 10.26,-1.47 14.04,-2.1 3.77,-0.42 8.59,-1.46 10.89,-2.3 4.82,-1.47 12.78,-3.35 16.97,-3.98 1.68,-0.21 5.03,-1.47 7.33,-2.73 4.19,-2.3 5.66,-2.72 9.22,-2.72 1.05,0 3.35,-1.47 5.03,-3.14 2.51,-2.31 2.72,-5.03 1.05,-12.99 -2.31,-12.78 -4.61,-33.32 -4.19,-41.91l0.21 -6.7 -10.27 3.98c-5.45,2.1 -10.68,3.35 -11.31,2.72 -0.63,-0.83 -1.26,-0.21 -1.26,1.05 0,1.47 -0.63,2.31 -1.47,2.1 -1.04,-0.21 -5.86,0.83 -11.1,2.51 -5.24,1.47 -11.31,2.93 -13.62,3.14 -2.3,0.42 -9.85,1.47 -16.76,2.52 -19.07,2.72 -37.71,1.88 -58.66,-2.52 -6.71,-1.46 -17.81,-7.54 -17.81,-9.63 0,-1.47 -0.63,-2.1 -1.26,-1.26 -0.63,0.63 -5.03,-2.1 -9.43,-6.29 -4.61,-4.19 -7.75,-7.96 -7.33,-8.59 0.63,-0.42 -0.84,-2.72 -2.93,-5.23 -2.31,-2.31 -3.57,-5.03 -2.73,-6.29 0.63,-1.05 0,-2.51 -1.25,-3.35 -2.94,-1.89 -4.2,-7.54 -5.66,-25.98l-1.26 -14.04 94.49 0c74.17,0 94.49,-0.63 94.7,-2.72 0.84,-23.89 -0.42,-64.53 -2.09,-69.35 -1.47,-3.35 -1.89,-6.49 -1.47,-7.12 0.63,-0.42 -0.21,-3.57 -2.1,-6.92 -1.67,-3.35 -2.93,-6.49 -2.93,-7.12 0,-0.63 -0.21,-1.47 -0.21,-2.1 -0.21,-0.62 -0.42,-1.88 -0.63,-2.72 -0.83,-5.45 -18.22,-31.22 -26.6,-39.81 -11.11,-11.31 -34.37,-24.09 -51.54,-28.49 -17.81,-4.4 -66,-3.77 -81.29,1.26l0 0zm57.61 56.15c0.84,1.46 2.73,2.09 3.98,1.25 1.26,-0.83 6.5,2.73 11.94,7.55 8.39,7.75 11.32,12.15 13.41,18.85 0.21,0.84 1.68,6.08 3.36,11.32 5.65,19.06 10.47,17.6 -53.85,17.6 -54.89,0 -56.57,-0.22 -55.31,-3.99 0.63,-2.3 1.68,-6.07 2.09,-8.38 2.31,-12.15 20.33,-40.43 23.47,-37.08 0.63,0.63 2.93,-0.84 5.24,-2.93 2.3,-2.1 5.45,-3.36 7.12,-2.73 1.68,0.63 2.93,0 2.93,-1.05 0,-2.93 4.61,-3.56 20.54,-3.14 8.17,0 14.24,1.26 15.08,2.73l0 0z"/>
    <path class="fil0" d="M1086.91 1084.92c-2.73,1.05 -6.92,2.31 -9.43,2.73 -7.33,1.46 -18.86,5.86 -23.89,9.21 -2.72,1.68 -4.81,2.52 -4.81,1.68 0,-0.63 -2.31,0.84 -5.03,3.14 -2.73,2.52 -5.45,3.98 -5.87,3.77 -2.93,-2.72 -38.34,39.6 -40.44,48.4 -0.21,0.63 -2.3,5.24 -4.61,10.48 -3.77,8.38 -6.91,18.02 -6.7,20.95 0,0.63 -1.05,3.77 -2.3,7.12 -1.26,3.35 -2.73,10.48 -3.57,15.72 -1.67,13.61 -1.46,57.61 0.42,72.49 0.84,6.91 1.68,14.24 1.68,16.13 0.21,2.09 1.05,3.77 1.89,3.77 0.83,0 1.46,0.63 1.25,1.47 -0.84,4.19 5.87,22 13.62,35.2 7.33,12.98 27.87,36.45 32.27,37.08 0.83,0 5.02,2.3 9,4.82 3.99,2.51 12.58,6.28 18.86,8.38 6.29,2.09 11.94,4.4 12.57,5.03 0.63,0.63 3.35,1.46 6.29,1.67 2.93,0 8.59,0.84 12.57,1.68 10.47,2.09 75.42,2.72 81.29,0.63 2.72,-0.84 8.59,-2.1 13.41,-2.73 4.61,-0.62 9.01,-1.46 9.85,-2.09 0.83,-0.42 4.39,-1.47 7.75,-1.89 12.78,-2.51 15.29,-3.14 19.48,-5.45 2.52,-1.25 4.4,-1.67 4.4,-1.04 0,0.63 2.1,-0.21 4.82,-2.1 5.03,-3.14 5.03,-2.72 2.72,-29.33 -2.51,-28.91 -5.65,-36.25 -12.78,-30.38 -1.67,1.47 -3.14,1.89 -3.14,1.05 0,-0.84 -1.26,-0.42 -2.93,0.84 -1.68,1.46 -4.61,2.93 -6.71,3.35 -2.3,0.42 -8.17,1.88 -13.41,3.35 -12.78,3.14 -14.03,3.35 -27.23,5.24 -22.63,2.93 -35.62,2.51 -58.88,-2.31 -6.91,-1.46 -22.83,-9.63 -22.83,-11.73 0,-1.26 -0.84,-1.68 -1.89,-1.05 -1.88,1.26 -15.92,-14.45 -14.45,-16.13 0.41,-0.42 -0.84,-2.51 -2.52,-4.4 -1.68,-2.1 -3.14,-4.82 -3.35,-6.28 -0.42,-1.26 -1.05,-4.2 -1.68,-6.5 -4.4,-16.55 -5.44,-23.46 -4.4,-28.7l1.47 -5.87 93.65 0 93.86 0 0 -5.87c0,-3.14 0,-15.08 0.21,-26.6 0.21,-24.73 -0.63,-36.46 -2.51,-41.28 -0.84,-1.88 -1.89,-4.61 -2.1,-6.28 -1.25,-6.29 -3.98,-15.51 -5.23,-17.39 -0.63,-1.26 -1.26,-2.52 -1.26,-3.15 -0.21,-3.98 -14.88,-25.77 -23.05,-34.36 -5.45,-5.44 -8.59,-9.42 -7.12,-8.59 1.67,1.05 2.09,0.84 1.05,-0.83 -0.84,-1.26 -2.31,-1.89 -3.36,-1.26 -0.83,0.63 -2.93,-0.42 -4.39,-2.31 -2.52,-2.93 -22.21,-13.4 -28.08,-14.66 -1.05,-0.21 -6.49,-1.89 -11.94,-3.56 -11.31,-3.57 -64.32,-4.4 -72.49,-1.26l0 0zm53.63 59.5c16.34,6.71 27.03,23.47 28.91,46.52l0.84 9 -55.73 0 -55.73 0 1.47 -5.86c0.84,-3.14 1.67,-7.13 2.09,-9.01 3.15,-15.92 19.91,-35.41 34.99,-41.28 12.15,-4.6 30.8,-4.18 43.16,0.63l0 0z"/>
    <path class="fil0" d="M1861.05 1084.92c-3.14,0.84 -8.8,2.1 -12.57,2.52 -22.63,3.35 -46.93,11.1 -49.44,15.71 -1.89,3.56 -1.47,13.2 0.42,16.76 0.62,0.84 1.67,8.59 2.3,16.97 0.63,8.59 1.68,18.44 2.52,22.21l1.25 6.7 16.34 -7.12c9.22,-3.98 18.23,-7.54 20.33,-7.96 2.09,-0.42 9.43,-2.31 16.34,-3.98 26.4,-6.29 72.49,-2.31 75.84,6.28 0.63,1.68 1.89,2.52 2.73,1.89 2.09,-1.26 11.1,10.05 13.41,16.76 1.04,2.3 2.09,11.31 2.72,20.11l1.05 16.13 -25.98 1.05c-27.24,1.26 -36.04,2.31 -43.16,4.4 -2.31,0.84 -6.08,1.68 -8.17,2.1 -12.57,2.51 -24.73,6.91 -41.49,15.08 -10.26,5.03 -17.8,9.22 -16.76,9.22 1.26,0 -1.25,2.1 -5.23,4.61 -9.22,5.87 -10.9,7.54 -15.72,15.71 -2.09,3.77 -4.82,6.08 -6.07,5.45 -1.26,-0.63 -1.68,-0.63 -0.84,0.42 0.84,0.84 0,4.61 -1.89,8.17 -1.88,3.56 -3.77,7.75 -3.98,9.43 -0.42,1.67 -1.26,3.56 -2.3,4.19 -1.89,1.47 -2.31,5.24 -3.35,27.45 -0.84,17.17 3.56,37.5 10.05,47.56 2.1,3.14 3.77,6.07 3.56,6.49 -0.62,0.63 11.94,11.31 19.49,16.55 22.62,15.3 75.21,16.76 101.82,2.72 4.61,-2.3 8.17,-3.56 8.17,-2.93 0,0.42 2.1,-0.84 4.61,-3.35 2.51,-2.31 5.24,-4.19 6.08,-4.19 3.56,0 14.66,-12.15 21.79,-24.09 6.28,-10.06 7.54,-11.32 6.49,-6.29 -1.88,10.48 -3.35,35.2 -2.09,40.23 1.25,4.81 1.67,4.81 37.71,4.81 33.31,0 36.45,-0.41 36.66,-3.77 0.63,-12.36 -0.63,-201.34 -1.26,-204.69 -0.62,-2.3 -1.46,-10.48 -1.88,-18.44 -0.63,-7.75 -1.68,-15.08 -2.31,-16.13 -0.62,-1.26 -1.67,-4.19 -2.09,-6.49 -1.47,-7.76 -11.73,-25.56 -16.97,-29.75 -2.72,-2.1 -4.61,-4.61 -4.19,-5.45 1.88,-2.73 -32.9,-18.65 -41.69,-19.28 -0.63,0 -5.24,-1.25 -10.48,-2.93 -10.48,-3.14 -81.29,-3.77 -91.77,-0.84l0 0zm91.98 185.21c-0.84,13.2 -4.61,27.24 -8.59,31.01 -1.68,1.67 -2.51,3.56 -2.1,3.98 2.31,2.09 -20.11,23.05 -29.54,27.66 -11.52,5.65 -33.52,6.7 -42.74,2.09 -5.65,-2.72 -12.78,-11.52 -14.24,-17.18 -1.26,-4.82 -1.26,-16.76 0,-24.09 0.83,-4.61 14.24,-20.75 14.24,-17.18 0,0.63 2.1,-0.84 4.61,-3.15 5.45,-5.03 21.58,-10.26 36.25,-11.73 5.65,-0.63 10.68,-1.26 10.89,-1.68 0.42,-0.41 7.75,-0.62 16.34,-0.41l15.51 0.21 -0.63 10.47z"/>
    <path class="fil0" d="M2226.23 1087.65c-16.34,5.65 -22.41,8.8 -28.7,14.45 -2.72,2.31 -4.82,3.56 -4.82,2.73 0,-1.89 -17.6,18.01 -22.21,25.14 -5.03,7.54 -6.91,3.77 -5.03,-9.64 1.05,-6.28 1.89,-15.92 1.89,-21.58l0.21 -9.85 -37.71 0 -37.71 0 0 151.9 0 151.9 39.38 -0.42 39.18 -0.63 1.26 -84.86c0.63,-46.72 1.68,-86.73 2.3,-89.04 2.73,-12.57 6.29,-22.21 9.22,-25.14 1.68,-1.67 2.73,-3.14 1.89,-3.14 -0.63,0 0.42,-2.52 2.51,-5.87 14.46,-23.25 32.69,-34.99 54.48,-34.99 11.31,0 13.82,0.84 20.95,6.5 4.4,3.56 7.96,7.33 7.96,8.38 0,1.05 0.84,3.14 1.67,4.4 3.99,6.28 4.61,17.81 5.03,118.37l0.84 106.43 38.55 0 38.76 0 0.42 -112.71c0,-61.81 0.21,-114.81 0,-117.75 0,-6.49 -6.49,-31.84 -8.8,-34.57 -1.05,-1.26 -1.68,-2.51 -1.47,-3.14 0.84,-2.72 -15.29,-22.42 -22.2,-27.24 -4.19,-2.93 -7.76,-6.07 -7.76,-6.91 0,-1.05 -0.83,-1.26 -1.67,-0.63 -1.05,0.63 -6.5,-0.63 -12.15,-2.72 -15.72,-6.08 -57.83,-5.66 -76.27,0.63l0 0z"/>
    <path class="fil0" d="M214.92 1424.75c0,0.21 1.88,6.29 4.4,12.99 3.35,9.64 4.19,15.71 3.35,26.19 -0.63,7.33 -2.1,13.83 -3.14,14.25 -1.26,0.42 -1.68,2.09 -1.05,3.77 0.63,1.46 -0.42,3.56 -2.31,4.19 -1.88,0.63 -2.93,1.88 -2.51,2.72 1.05,1.68 -5.87,9.01 -17.39,19.07 -6.7,5.86 -6.7,6.28 -3.56,10.89 1.88,2.72 3.98,4.61 4.61,4.19 0.83,-0.63 15.08,10.27 24.51,18.86 3.77,3.14 4.61,3.14 13.2,-1.68 5.03,-2.93 9.22,-4.4 9.22,-3.56 0,0.84 0.84,0.63 1.67,-0.42 0.84,-1.26 6.92,-5.86 13.62,-10.26 18.44,-12.37 33.32,-31.01 36.04,-45.05 1.46,-7.96 1.67,-27.45 0.42,-28.91 -0.84,-0.63 -1.47,-2.94 -1.47,-5.03 0,-1.89 -1.88,-7.96 -4.19,-13.2l-3.98 -9.64 -35.83 0c-19.48,0 -35.61,0.21 -35.61,0.63l0 0z"/>
   </g>
  </g>
 </g>
</svg>
