<?xml version="1.0" encoding="UTF-8"?>
<!DOCTYPE svg PUBLIC "-//W3C//DTD SVG 1.1//EN" "http://www.w3.org/Graphics/SVG/1.1/DTD/svg11.dtd">
<!-- Creator: CorelDRAW 2018 (64-Bit Evaluation Version) -->
<svg xmlns="http://www.w3.org/2000/svg" xml:space="preserve" width="150px" height="150px" version="1.1" style="shape-rendering:geometricPrecision; text-rendering:geometricPrecision; image-rendering:optimizeQuality; fill-rule:evenodd; clip-rule:evenodd"
viewBox="0 0 150 150"
 xmlns:xlink="http://www.w3.org/1999/xlink">
 <defs>
  <style type="text/css">
   <![CDATA[
    .fil0 {fill:#FEFEFE}
   ]]>
  </style>
 </defs>
 <g id="Layer_x0020_1">
  <metadata id="CorelCorpID_0Corel-Layer"/>
  <g id="_1884623835792">
   <path class="fil0" d="M81.94 68.95c-1.89,4.04 -4.54,9.74 -5.91,12.68 -1.38,2.93 -2.49,5.39 -2.49,5.45 0,0.07 0.98,0.11 2.15,0.09l2.17 -0.05 1.38 -3.08 1.39 -3.09 4.85 0c2.72,0 4.84,0.06 4.84,0.14 0,0.07 0.59,1.47 1.31,3.12l1.32 2.99 2.18 0c1.21,0 2.2,-0.03 2.2,-0.06 0,-0.03 -0.27,-0.64 -0.61,-1.34 -1.49,-3.17 -10.43,-22.42 -10.8,-23.26 -0.23,-0.53 -0.44,-0.96 -0.48,-0.96 -0.05,0 -1.62,3.31 -3.5,7.37l0 0zm5.62 5.93c0.59,1.32 1.08,2.44 1.08,2.48 0,0.05 -1.45,0.08 -3.22,0.08 -2.52,0 -3.2,-0.05 -3.14,-0.2 0.04,-0.09 0.62,-1.4 1.29,-2.88 0.68,-1.5 1.35,-3.07 1.48,-3.51 0.16,-0.44 0.31,-0.87 0.35,-0.94 0.05,-0.08 0.29,0.47 0.57,1.22 0.27,0.74 0.99,2.44 1.59,3.75z"/>
   <path class="fil0" d="M99.37 61.82c0.05,0.14 0.1,5.91 0.1,12.81l0 12.57 1.9 0 1.91 0 0 -8.42c0,-7.94 0.01,-8.4 0.26,-8.05 0.52,0.78 1.6,1.88 5.84,5.95 2.39,2.3 6.08,5.85 8.2,7.9 2.12,2.06 3.88,3.7 3.89,3.67 0.02,-0.03 0.02,-5.81 -0.01,-12.84l-0.03 -12.76 -1.91 0 -1.91 0 -0.03 8.31 -0.04 8.31 -0.86 -0.99c-0.47,-0.55 -3.84,-3.86 -7.47,-7.37 -3.64,-3.49 -7.3,-7.01 -8.14,-7.84 -1.48,-1.45 -1.89,-1.75 -1.7,-1.25l0 0z"/>
   <path class="fil0" d="M126.2 61.79c0.06,0.16 0.11,5.94 0.11,12.84l0 12.57 1.9 0 1.91 0 0.03 -8.31 0.04 -8.33 0.62 0.78c0.33,0.41 2.01,2.12 3.73,3.78 11.61,11.15 13.47,12.92 13.59,12.96 0.08,0.04 0.14,-5.06 0.14,-12.68l0 -12.75 -1.91 0 -1.91 0 0 8.4 0 8.4 -0.59 -0.74c-0.69,-0.86 -3.89,-4.01 -9.62,-9.5 -2.23,-2.14 -4.88,-4.7 -5.92,-5.72 -1.89,-1.85 -2.3,-2.19 -2.12,-1.7l0 0z"/>
   <path class="fil0" d="M11.03 62.22c-1.71,4.62 -6.48,17.4 -7.64,20.48 -0.86,2.26 -1.59,4.27 -1.63,4.45 -0.08,0.36 -0.08,0.36 1.99,0.36 1.15,0 2.08,-0.04 2.08,-0.07 0,-0.01 1.17,-3.21 2.59,-7.09 1.43,-3.89 2.71,-7.47 2.85,-7.97l0.26 -0.93 0.34 1.08c0.5,1.68 6.04,15.89 6.19,15.89 0.06,0 0.12,-0.08 0.12,-0.18 0,-0.09 1.16,-3.27 2.59,-7.05 1.42,-3.78 2.78,-7.52 3.02,-8.29l0.44 -1.44 0.34 1.05c0.63,1.87 5.4,14.61 5.55,14.8 0.18,0.24 4.07,0.29 4.07,0.04 0,-0.07 -0.06,-0.29 -0.15,-0.49 -0.08,-0.19 -1.46,-3.88 -3.05,-8.2 -1.6,-4.32 -3.63,-9.78 -4.51,-12.12 -0.87,-2.35 -1.59,-4.37 -1.59,-4.47 0,-0.09 -0.11,-0.19 -0.23,-0.19 -0.12,0 -0.23,0.08 -0.23,0.17 0,0.09 -0.56,1.59 -1.25,3.33 -3.14,7.99 -4.37,11.14 -4.69,12.14 -0.46,1.43 -0.48,1.45 -0.71,0.67 -0.33,-1.15 -6.39,-16.29 -6.51,-16.31 -0.06,0 -0.17,0.16 -0.24,0.34l0 0z"/>
   <path class="fil0" d="M61.49 62.27c-2.7,0.54 -4.83,1.7 -6.72,3.67 -2.73,2.85 -3.98,6.62 -3.51,10.58 0.47,3.85 2.42,7.13 5.43,9.14 2.32,1.54 4.5,2.15 7.73,2.15 2.85,0 4.74,-0.49 6.8,-1.72l0.79 -0.48 0 -2.33c0,-1.28 -0.03,-2.33 -0.06,-2.33 -0.04,0 -0.5,0.32 -1.03,0.73 -4.14,3.11 -9.81,3.03 -12.89,-0.17 -4.12,-4.28 -2.97,-12.21 2.1,-14.64 3.47,-1.66 7.54,-1.2 10.92,1.21 0.54,0.38 1.01,0.67 1.03,0.64 0.03,-0.02 0.09,-0.98 0.12,-2.12l0.06 -2.06 -0.96 -0.58c-1.24,-0.75 -2.87,-1.37 -4.35,-1.68 -1.4,-0.29 -4.06,-0.3 -5.46,-0.01l0 0z"/>
   <path class="fil0" d="M42.57 70.73c-1.96,0.23 -4.08,1.22 -5.28,2.47 -0.73,0.76 -1.54,2.21 -1.91,3.4 -0.39,1.27 -0.45,3.63 -0.13,4.96 0.68,2.83 2.8,5.09 5.56,5.93 1.92,0.59 4.87,0.4 6.76,-0.44l0.65 -0.29 0 -2.14c0,-1.19 -0.04,-2.15 -0.09,-2.15 -0.04,0 -0.42,0.31 -0.84,0.67 -0.94,0.86 -1.84,1.16 -3.35,1.16 -2.82,0 -4.42,-1.34 -4.88,-4.08 -0.46,-2.78 0.91,-5.34 3.19,-5.98 1.64,-0.46 3.92,0.03 5.1,1.08 0.39,0.32 0.74,0.6 0.78,0.6 0.05,0 0.09,-0.95 0.09,-2.12l0 -2.12 -0.71 -0.31c-1.47,-0.62 -3.18,-0.84 -4.94,-0.64l0 0z"/>
  </g>
 </g>
</svg>
