<?xml version="1.0" encoding="UTF-8"?>
<!DOCTYPE svg PUBLIC "-//W3C//DTD SVG 1.1//EN" "http://www.w3.org/Graphics/SVG/1.1/DTD/svg11.dtd">
<!-- Creator: CorelDRAW 2018 (64-Bit Evaluation Version) -->
<svg xmlns="http://www.w3.org/2000/svg" xml:space="preserve" width="150px" height="150px" version="1.1" style="shape-rendering:geometricPrecision; text-rendering:geometricPrecision; image-rendering:optimizeQuality; fill-rule:evenodd; clip-rule:evenodd"
viewBox="0 0 150 150"
 xmlns:xlink="http://www.w3.org/1999/xlink">
 <defs>
  <style type="text/css">
   <![CDATA[
    .fil0 {fill:#FEFEFE}
   ]]>
  </style>
 </defs>
 <g id="Layer_x0020_1">
  <metadata id="CorelCorpID_0Corel-Layer"/>
  <g id="_1919184915408">
   <path class="fil0" d="M6.77 68.01l0 0.41 1.36 0 1.36 0 0 7.05c0,3.88 -0.05,7.56 -0.09,8.17 -0.21,2.99 -1.05,4.1 -3.26,4.32 -1.15,0.12 -2.02,-0.36 -2.23,-1.2 -0.05,-0.2 -0.11,-0.73 -0.13,-1.19 -0.06,-1 -0.15,-1.35 -0.43,-1.63 -0.43,-0.42 -1.39,-0.49 -1.97,-0.13 -0.31,0.19 -0.65,0.82 -0.74,1.36 -0.07,0.48 0.09,1.52 0.31,1.98 0.38,0.83 1.24,1.39 2.5,1.65 0.89,0.18 3.25,0.18 4.28,0 2.29,-0.41 3.62,-1.42 4.31,-3.24 0.45,-1.21 0.43,-0.93 0.46,-9.35l0.04 -7.79 1.39 0 1.4 0 0 -0.41 0 -0.41 -4.28 0 -4.28 0 0 0.41 0 0z"/>
   <path class="fil0" d="M21.09 68l0 0.42 1.23 0 1.24 0 -0.03 8.74c-0.02,6.86 -0.05,8.82 -0.13,9.09 -0.26,0.82 -1,1.29 -2.2,1.4l-0.61 0.05 0 0.35 0 0.36 4.53 0 4.52 0 0 -0.36 0 -0.35 -0.63 -0.05c-1.23,-0.1 -1.87,-0.47 -2.16,-1.26 -0.16,-0.43 -0.17,-0.62 -0.17,-3.56l0 -3.12 2.29 -0.04c2.49,-0.05 3.11,-0.13 4.43,-0.57 1.79,-0.59 2.86,-1.58 3.43,-3.19 0.26,-0.69 0.26,-0.72 0.26,-2.35 0,-1.31 -0.04,-1.75 -0.15,-2.18 -0.45,-1.63 -1.41,-2.62 -3.12,-3.19 -1.51,-0.49 -1.96,-0.52 -7.61,-0.57l-5.12 -0.04 0 0.42 0 0zm8.59 0.59c2.62,0.3 3.94,1.37 4.37,3.53 0.16,0.85 0.12,2.87 -0.08,3.48 -0.74,2.29 -2.62,3.27 -6.26,3.27l-1.03 0 0 -5.18 0 -5.19 1.13 0c0.62,0 1.47,0.05 1.87,0.09l0 0z"/>
   <path class="fil0" d="M41.16 68.05l0 0.37 1.27 0 1.29 0 -0.03 8.86c-0.02,8.43 -0.03,8.89 -0.18,9.22 -0.16,0.39 -0.6,0.81 -1.02,0.98 -0.15,0.07 -0.51,0.14 -0.8,0.17l-0.53 0.05 0 0.35 0 0.36 2.96 0 2.96 0 0 -0.36 0 -0.35 -0.44 -0.05c-0.55,-0.06 -1.21,-0.39 -1.48,-0.73 -0.43,-0.6 -0.41,-0.28 -0.45,-8.57 -0.02,-7.38 -0.01,-7.71 0.13,-7.71 0.11,0 0.92,1.81 3.94,8.87l3.79 8.86 0.37 0.03 0.37 0.02 1.4 -3.44c0.76,-1.89 2.37,-5.86 3.57,-8.8 1.19,-2.95 2.2,-5.37 2.24,-5.37 0.03,0 0.04,3.43 0.04,7.62 -0.03,5.9 -0.06,7.71 -0.14,7.95 -0.14,0.42 -0.55,0.87 -0.96,1.05 -0.18,0.09 -0.58,0.18 -0.89,0.21l-0.55 0.06 0 0.35 0 0.36 4.12 0 4.11 0 0 -0.37c0,-0.36 -0.01,-0.37 -0.26,-0.37 -0.46,0 -1.21,-0.21 -1.55,-0.44 -0.41,-0.27 -0.63,-0.71 -0.74,-1.43 -0.05,-0.33 -0.08,-3.9 -0.08,-8.97l0 -8.41 1.11 0 1.11 0 0 -0.37 0 -0.37 -2.71 0 -2.7 0 -3.16 7.87c-1.99,4.95 -3.21,7.89 -3.29,7.9 -0.08,0.02 -1.07,-2.24 -3.48,-7.87l-3.37 -7.9 -2.99 0 -2.98 0 0 0.37 0 0z"/>
   <path class="fil0" d="M110.78 72.7c-0.28,0.17 -0.54,0.6 -0.64,1.07 -0.09,0.42 -0.35,0.89 -0.55,0.99 -0.11,0.06 -0.36,0.08 -0.62,0.05 -0.35,-0.03 -0.51,-0.1 -0.77,-0.33 -0.89,-0.76 -2.31,-1.2 -4.08,-1.27 -1.76,-0.06 -2.86,0.2 -4.03,0.99 -1.02,0.68 -1.68,1.61 -2.1,2.94 -0.17,0.54 -0.19,0.78 -0.18,1.85 0,1.39 0.1,1.95 0.54,2.84 0.49,1.01 1.45,1.74 2.82,2.1 0.3,0.08 0.54,0.17 0.54,0.2 0,0.04 -0.42,0.16 -0.94,0.28 -1.07,0.26 -2.09,0.72 -2.59,1.16 -0.18,0.17 -0.44,0.51 -0.56,0.77 -0.2,0.4 -0.23,0.57 -0.23,1.17 0,0.6 0.03,0.76 0.23,1.17 0.37,0.75 1.07,1.21 2.33,1.53 1.03,0.27 1.82,0.34 4.18,0.42 3.14,0.11 3.93,0.25 4.72,0.82 0.69,0.5 0.93,1.69 0.53,2.57 -0.66,1.47 -2.83,2.29 -5.74,2.18 -2.13,-0.08 -3.35,-0.55 -3.85,-1.49 -0.16,-0.29 -0.18,-0.44 -0.16,-1.28 0.03,-1.09 -0.07,-1.35 -0.58,-1.59 -0.37,-0.18 -0.68,-0.17 -1.09,0.02 -0.63,0.29 -0.85,0.75 -0.86,1.79 0,0.92 0.21,1.48 0.77,2.04 0.52,0.52 1.1,0.8 2.3,1.11 1.17,0.31 2.05,0.41 3.37,0.41 2.98,0 4.92,-0.6 6.31,-1.97 0.9,-0.89 1.4,-2.13 1.4,-3.45 -0.01,-1.97 -0.92,-3.38 -2.59,-3.96 -0.78,-0.27 -1.95,-0.4 -4.95,-0.52 -3.13,-0.13 -3.58,-0.21 -3.9,-0.61 -0.25,-0.31 -0.19,-0.92 0.13,-1.25 0.43,-0.46 1.18,-0.69 3.58,-1.11 2.25,-0.4 3.42,-0.79 4.48,-1.52 0.87,-0.6 1.56,-1.71 1.82,-2.88 0.22,-1.04 0.05,-2.91 -0.33,-3.8 -0.06,-0.13 0.01,-0.13 0.66,-0.13 1.2,0 2.03,-0.42 2.41,-1.2 0.33,-0.69 0.14,-1.69 -0.38,-2.11 -0.29,-0.22 -1.03,-0.23 -1.4,0l0 0zm-6.45 1.4c1.18,0.2 1.88,0.89 2.27,2.27 0.21,0.71 0.26,3.37 0.1,4.31 -0.18,1.01 -0.42,1.58 -0.85,2.01 -0.5,0.5 -0.99,0.66 -2.05,0.66 -1.69,0 -2.38,-0.57 -2.8,-2.3 -0.11,-0.44 -0.14,-0.94 -0.14,-2.1 0,-1.3 0.02,-1.61 0.17,-2.17 0.49,-1.77 1.31,-2.62 2.69,-2.76 0.05,0 0.32,0.04 0.61,0.08l0 0z"/>
   <path class="fil0" d="M73.13 73.33c-1.62,0.32 -2.85,1.01 -3.8,2.17 -0.21,0.24 -0.56,0.82 -0.78,1.27 -0.71,1.45 -0.96,2.86 -0.88,4.94 0.09,2.36 0.74,4.09 2.05,5.39 1.62,1.62 4.39,2.32 6.75,1.7 3.39,-0.9 5.34,-3.72 5.33,-7.75 -0.02,-4.25 -2.02,-7.07 -5.51,-7.72 -0.83,-0.16 -2.37,-0.16 -3.16,0l0 0zm2.91 1.01c0.52,0.15 1.17,0.61 1.49,1.02 0.36,0.48 0.68,1.39 0.82,2.36 0.14,0.93 0.14,5.03 0,6.12 -0.3,2.4 -0.97,3.56 -2.29,4 -0.44,0.15 -0.73,0.19 -1.46,0.18 -2.06,-0.01 -2.97,-0.74 -3.37,-2.67 -0.32,-1.55 -0.37,-5.73 -0.09,-7.57 0.32,-2.07 1.02,-3.07 2.45,-3.48 0.49,-0.14 1.96,-0.11 2.45,0.04l0 0z"/>
   <path class="fil0" d="M117.99 73.32c-1.35,0.22 -2.26,0.62 -3.06,1.35 -0.72,0.65 -1.07,1.62 -0.88,2.46 0.15,0.65 0.55,0.93 1.33,0.93 0.86,0 1.27,-0.42 1.47,-1.49 0.21,-1.18 0.57,-1.76 1.29,-2.12 0.43,-0.21 0.54,-0.23 1.42,-0.23 0.81,0 1,0.03 1.35,0.19 0.56,0.26 0.81,0.52 1.07,1.09 0.27,0.61 0.37,1.37 0.37,2.89 0,1.11 -0.01,1.22 -0.14,1.22 -0.08,0 -0.63,0.06 -1.21,0.12 -4.72,0.55 -7.09,2.02 -7.45,4.6 -0.18,1.28 0.19,2.44 1.06,3.33 1.34,1.37 3.56,1.58 5.61,0.54 0.55,-0.27 1.57,-1.05 1.96,-1.46l0.2 -0.22 0.28 0.57c0.3,0.64 0.67,1 1.34,1.31 0.41,0.19 0.55,0.22 1.44,0.22 0.89,0 1.03,-0.03 1.44,-0.22 0.6,-0.28 0.99,-0.62 1.26,-1.12 0.24,-0.45 0.47,-1.29 0.47,-1.77 0,-0.3 -0.01,-0.31 -0.28,-0.31 -0.27,0 -0.29,0.03 -0.34,0.32 -0.07,0.38 -0.37,0.89 -0.68,1.12 -0.49,0.36 -1.3,0.15 -1.58,-0.42 -0.18,-0.34 -0.23,-1.95 -0.24,-6.13 -0.01,-2.33 -0.04,-3.75 -0.1,-4.03 -0.3,-1.39 -1.3,-2.3 -2.92,-2.67 -0.81,-0.18 -3.55,-0.23 -4.48,-0.07l0 0zm4.36 9.63l0 2.34 -0.26 0.26c-0.83,0.77 -2,1.45 -2.78,1.62 -0.9,0.19 -1.82,-0.16 -2.28,-0.85 -0.34,-0.5 -0.46,-0.93 -0.46,-1.67 -0.01,-1.44 1.2,-2.77 3.22,-3.53 0.8,-0.3 1.69,-0.51 2.22,-0.51l0.34 -0.01 0 2.35 0 0z"/>
   <path class="fil0" d="M138.17 73.45c-1.32,0.22 -2.73,1.21 -3.44,2.42 -0.12,0.2 -0.27,0.37 -0.32,0.37 -0.07,0 -0.17,-0.34 -0.28,-0.97 -0.1,-0.53 -0.23,-1.14 -0.27,-1.36l-0.09 -0.39 -2.33 0 -2.34 0 0 0.41 0 0.39 0.76 0.06c0.41,0.02 0.93,0.05 1.15,0.05l0.39 0 0 5.5c0,3.28 -0.03,5.67 -0.08,5.92 -0.19,1 -0.56,1.35 -1.59,1.51l-0.63 0.11 0 0.46 0 0.48 3.7 0 3.7 0 0 -0.48 0 -0.48 -0.49 -0.1c-0.59,-0.11 -0.95,-0.39 -1.18,-0.91 -0.17,-0.36 -0.18,-0.51 -0.2,-4.06 -0.02,-3.06 0,-3.81 0.11,-4.43 0.22,-1.32 0.8,-2.12 1.91,-2.64 0.5,-0.24 0.62,-0.27 1.38,-0.27 0.88,0 1.16,0.09 1.62,0.53 0.34,0.31 0.52,0.71 0.69,1.5 0.13,0.59 0.15,1.26 0.18,4.91 0.02,4.17 0.02,4.22 -0.15,4.58 -0.21,0.44 -0.56,0.67 -1.15,0.78 -0.24,0.05 -0.45,0.09 -0.46,0.09 -0.02,0 -0.03,0.22 -0.03,0.49l0 0.49 3.57 0 3.58 0 0 -0.47 0 -0.49 -0.55 -0.1c-0.92,-0.17 -1.24,-0.46 -1.55,-1.41 -0.14,-0.42 -0.16,-0.8 -0.16,-4.85 0,-3.92 -0.02,-4.45 -0.15,-4.88 -0.56,-1.87 -2.01,-2.87 -4.17,-2.84 -0.39,0 -0.89,0.04 -1.13,0.08l0 0z"/>
   <path class="fil0" d="M91.83 73.55c-1.15,0.33 -2.15,1.32 -2.7,2.67 -0.07,0.15 -0.16,0.26 -0.21,0.24 -0.05,-0.02 -0.2,-0.68 -0.33,-1.48l-0.24 -1.46 -2.57 0 -2.58 0 0 0.45 0 0.46 1.38 0 1.37 0 -0.02 5.52c-0.01,3.12 -0.06,5.74 -0.1,5.99 -0.19,1.06 -0.64,1.42 -1.87,1.47l-0.76 0.03 0 0.49 0 0.48 4.27 0 4.28 0 0 -0.49 0 -0.49 -0.59 0c-0.76,0 -1.15,-0.11 -1.5,-0.43 -0.56,-0.48 -0.57,-0.61 -0.61,-4.51 -0.03,-3.87 -0.01,-4.13 0.44,-5.06 0.68,-1.42 1.99,-2.22 2.98,-1.84 0.12,0.05 0.56,0.42 0.97,0.84 0.81,0.84 1.03,0.95 1.64,0.79 0.47,-0.14 0.74,-0.36 0.9,-0.74 0.41,-1.03 -0.13,-2.24 -1.27,-2.79 -0.4,-0.18 -0.56,-0.21 -1.48,-0.23 -0.64,-0.01 -1.17,0.02 -1.4,0.09l0 0z"/>
   <path class="fil0" d="M15.7 85.76c-0.61,0.32 -0.94,0.86 -0.95,1.55 -0.01,1.54 1.95,2.26 3,1.1 0.73,-0.8 0.49,-2.15 -0.47,-2.62 -0.44,-0.22 -1.21,-0.23 -1.58,-0.03z"/>
   <path class="fil0" d="M34.57 85.8c-0.54,0.29 -0.85,0.83 -0.85,1.48 0.01,0.6 0.14,0.91 0.56,1.27 0.82,0.72 2.12,0.5 2.67,-0.43 0.15,-0.28 0.18,-0.42 0.16,-0.92 -0.02,-0.52 -0.06,-0.62 -0.28,-0.9 -0.39,-0.48 -0.8,-0.69 -1.4,-0.69 -0.37,0 -0.6,0.05 -0.86,0.19l0 0z"/>
  </g>
 </g>
</svg>
