<?xml version="1.0" encoding="utf-8"?>
<!-- Generator: Adobe Illustrator 16.0.0, SVG Export Plug-In . SVG Version: 6.00 Build 0)  -->
<!DOCTYPE svg PUBLIC "-//W3C//DTD SVG 1.1//EN" "http://www.w3.org/Graphics/SVG/1.1/DTD/svg11.dtd">
<svg version="1.1" id="Layer_3" xmlns="http://www.w3.org/2000/svg" xmlns:xlink="http://www.w3.org/1999/xlink" x="0px" y="0px"
	 width="50px" height="50px" viewBox="0 0 50 50" enable-background="new 0 0 50 50" xml:space="preserve">
<g>
	<path fill="#FFFFFF" d="M6.89,30.004c0.063-0.077,0.124-0.195,0.446-0.273c0,0,10.96-3.724,25.541-2.978
		c0,0,0.827-0.031,0.604,0.33c-0.132,0.213-0.378,0.226-0.846,0.251c0,0-0.158,0.024-0.778,0.017c0,0,1.491,0.58-4.396,0.46
		c0,0,0.521,0.529-1.644,0.377c0,0-6.036-0.275-18.236,1.938C7.58,30.125,6.621,30.331,6.89,30.004L6.89,30.004z"/>
	<path fill="#FFFFFF" d="M19.27,17.963c0,0-0.725-0.915-0.603,0.14c0,0,0.099,2.202-0.264,4.941
		c-0.042-0.107-0.098-0.216-0.174-0.322c0,0-0.633-0.844-1.342-0.61c0,0-0.905,0.285-1.43,1.651c0,0-0.37,0.945-0.265,1.655
		c0,0-0.035,1.868,2.239,0.549c0,0,0.24-0.147,0.522-0.434c-0.054,0.233-0.144,0.387-0.152,0.627c0,0-0.081,0.492,0.144,0.617
		c0.086,0.047,0.179-0.019,0.379-0.498c0,0,1.617-4.147,1.703-5.859C20.027,20.42,20.595,19.57,19.27,17.963L19.27,17.963z
		 M16.451,25.427c0,0-0.167-0.111-0.156-0.612c0,0,0.046-0.871,0.638-1.568c0,0,0.165-0.208,0.299-0.233
		c0.044-0.009,0.117,0.057,0.151,0.323c0.008,0.065-0.18,0.078-0.111,0.286c0,0,0.314,0.796,0.978,0.437
		c-0.028,0.164-0.057,0.328-0.088,0.494C17.815,25.032,17.089,25.862,16.451,25.427L16.451,25.427z M24.854,22.06
		c0,0,1.314,1.399,1.261,2.369c0,0-0.179,1.349-2.412,1.304c0,0-0.552-0.083-0.01-0.437c0,0,1.452-0.47,0.501-2.215
		c0,0-0.899,1.056-1.494,1.64l0.004,0.005c-1.702,1.659-2.037,1.051-2.037,1.051c-0.648-0.929-0.173-2.956-0.173-2.956
		c0.252-1.074,0.808-0.693,0.808-0.693c0.811,0.132,0.507,0.832,0.507,0.832c-0.103,0.54-0.234,0.48-0.234,0.48
		c-0.25,0.202-0.303,1.091-0.303,1.091c0.101,0.489-0.334,1.17,0.925,0.077c0.299-0.301,1.808-1.998,2.048-2.668
		C24.244,21.94,24.495,21.29,24.854,22.06L24.854,22.06z M22.905,19.988c-0.022,0.21-0.135,0.386-0.287,0.479
		c-0.219,0.164-0.67,0.446-0.815,0.407c-0.147-0.038,0.019-0.504,0.027-0.634c0.009-0.148,0.008-0.256,0.038-0.393
		c0.047-0.317,0.301-0.548,0.581-0.518C22.736,19.36,22.941,19.655,22.905,19.988L22.905,19.988z M32.178,21.799
		c0.39-0.516,0.662-0.283,0.662-0.283c0.037,0.021,0.114-0.004,0.146-0.006c0.517-0.039,0.093,0.469,0.093,0.469
		c-0.435,0.592-0.83,1.699-0.83,1.699c-0.1,0.251-0.197,0.653-0.197,0.653c-0.156,0.672,0.551,0.197,0.551,0.197
		c0.103-0.072,0.194-0.175,0.243-0.22c0.08-0.075,0.15-0.085,0.15-0.085c0.147-0.02-0.104-0.791-0.104-0.791
		c-0.107-0.304-0.089-0.316-0.089-0.316c-0.068-0.374,0.139-0.47,0.139-0.47c0.221-0.136,0.4,0.219,0.4,0.219
		c0.197,0.301,0.373,1.094,0.373,1.094c0.168,0.704-0.358,0.648-0.358,0.648c-0.218,0.043-0.592,0.414-0.592,0.414
		c-0.581,0.481-1.393,0.528-1.393,0.528c-0.805,0.027-0.739-0.681-0.739-0.681C30.627,24.103,32.178,21.799,32.178,21.799
		L32.178,21.799z M28.939,22.809c0.371,0.26,0.993,0.834,0.891,1.433c0,0-0.179,1.35-2.413,1.304c0,0-0.242-0.014-0.248-0.163
		c0.001-0.111,0.047-0.2,0.239-0.273c0,0,1.452-0.47,0.501-2.216c0,0-0.359,0.279-0.863,0.67c0,0-0.352,0.388-0.327-0.163
		c0,0,0.031-0.306,0.162-0.422c0,0,0.811-0.479,1.078-1.226c0.135-0.492,0.856-0.909,0.927-0.494
		c0.031,0.187-0.184,0.305-0.289,0.437C28.354,21.998,28.665,22.636,28.939,22.809L28.939,22.809L28.939,22.809z M14.546,25.504
		c0,0-0.003-0.026-0.027-0.048c-0.06-0.041-0.355,0.092-0.647,0.269c-0.047,0.027-0.089,0.053-0.128,0.074
		c-0.108,0.066-0.211,0.133-0.253,0.169c0,0-0.188,0.15-0.168-0.188c0-0.004,0-0.009,0.001-0.014h0
		c0.004-0.075,0.018-0.17,0.022-0.272c0,0,0.259-1.032,0.37-1.32c0,0,0.062-0.272,0.158-0.584c0,0,0.44-0.456-0.369-0.605
		c0,0-0.386-0.948-0.802,0.547c0,0,0,0,0-0.001c-0.029-0.153-0.169-0.391-0.388-0.484c-0.043-0.025-0.104-0.043-0.19-0.051
		c-0.032-0.003-0.054,0.006-0.125-0.003c0,0-0.387-0.135-0.803,0.385c-0.441,0.486-1.729,2.03-1.435,3.322
		c0,0,0.159,0.67,0.754,0.667c0,0,0.787,0.008,1.381-0.555c0,0,0.178-0.157,0.37-0.392c0.007,0.079,0.02,0.167,0.042,0.254
		c0.003,0.016,0.008,0.033,0.012,0.05c0,0,0.021,0.149,0.145,0.263c0.09,0.084,0.236,0.147,0.468,0.116
		c0.023-0.006,0.047-0.011,0.073-0.02c0,0,0.833-0.201,0.812-0.554c-0.01-0.176,0.053-0.211,0.053-0.211s0.053-0.029,0.035-0.091
		C13.905,26.228,14.568,25.785,14.546,25.504L14.546,25.504z M12.146,25.996c-0.069,0.11-0.134,0.235-0.312,0.348
		c0,0-0.911,0.559-0.879-0.229c0,0,0.03-0.437,0.181-0.842c0,0,0.419-1.067,1.069-1.688c0.06-0.062,0.111-0.066,0.145-0.021
		c0.09,0.125,0.107,0.266,0.175,0.382c0.018,0.03,0.038,0.062,0.06,0.092c-0.077,0.4-0.277,1.158-0.311,1.731
		C12.249,25.848,12.192,25.923,12.146,25.996L12.146,25.996z M5.796,21.674C5.971,21.994,5.737,22.5,5.737,22.5
		c-1.01,2.065-2.272,6.943-2.525,7.938l0.005-0.001c0,0-0.006,0.016-0.016,0.043c-0.022,0.089-0.035,0.138-0.035,0.138
		c-0.017,0.073-0.034,0.14-0.052,0.201c-0.027,0.152-0.049,0.345-0.044,0.564H3.068c0.008,0.264-0.003,0.533-0.083,0.57
		c-0.227,0.104-0.344-0.2-0.407-0.53c-0.222-0.052-0.405-0.341-0.405-0.341c-0.819-0.549-0.207-2.073-0.207-2.073
		c0.556-2.207,3.312-6.862,3.312-6.862C5.601,21.625,5.735,21.563,5.796,21.674L5.796,21.674z M9.982,29.479
		c0.438,0.609,0.771,1.039,0.68,1.119c-0.297,0.259-1.636-0.786-1.636-0.786c-2.327-1.93-3.355-4.389-3.58-4.987
		c-0.033-0.087,0.032-0.165,0.032-0.165c0.08-0.088,0.206-0.138,0.543-0.176c-0.001,0,0.001,0.001,0,0
		c-0.177-0.085-0.232-0.106-0.217-0.166c0.034-0.096,0.36-0.094,0.36-0.094c0.257-0.012,0.444-0.027,0.444-0.027
		c0.376-0.041,0.568-0.075,0.568-0.075c0.803-0.129,1.118-0.478,1.118-0.478c0.794-0.805-0.482-1.611-0.482-1.611
		c-3.234-1.858-5.838-0.978-5.838-0.978c-0.142,0.04-0.25,0.041-0.405-0.009c-0.339-0.114,0.264-0.594,0.264-0.594
		c1.604-1.328,2.445-0.931,2.445-0.931c3.116,0.207,4.487,1.836,4.487,1.836c1.086,1.149,0.805,2.064,0.659,2.331
		c-0.532,0.973-1.791,0.997-1.791,0.997c-0.196,0.011-0.368,0.016-0.52,0.017c0.145,0.166,0.251,0.453,0.251,0.453
		C7.609,25.913,9.982,29.479,9.982,29.479L9.982,29.479z M39.167,25.021c0,0,1.706,1.406-0.41,1.334c0,0-0.412,0.031-0.664-0.815
		c0,0-0.729-1.663-0.675-2.291c-0.073,0.081-0.476,0.566-0.706,1.103c-0.133,0.311-0.187,0.418-0.379,0.716
		c-0.104,0.148-0.204,0.282-0.298,0.369c-0.936,0.867-1.026-0.241-1.026-0.241c-0.193-0.943,0.292-2.458,0.292-2.458
		c0.352-1.045,0.869-0.615,0.869-0.615C36.886,22.309,36.596,23,36.596,23c-0.153,0.526-0.289,0.412-0.289,0.412
		c-0.178,0.118-0.226,0.369-0.238,0.529c0,0-0.067,0.585,0.194,0.136c0.196-0.399,0.578-1.065,0.855-1.278
		c0,0,0.409-0.436,0.647-0.076C37.766,22.723,38.794,24.791,39.167,25.021L39.167,25.021z"/>
	<path fill="#FFFFFF" d="M34.471,26.839c0.444,0.026,0.947,0.033,1.642,0.1c0.36,0.034,0.917,0.034,0.996,0.27
		c0.073,0.215-0.2,0.436-0.685,0.529c-0.246,0.049-0.401,0.088-0.623,0.08c-0.263-0.009-0.824,0.012-0.841-0.291
		c-0.012-0.188-0.378-0.188-0.624-0.197c-0.489-0.02-0.439-0.158-0.332-0.325C34.066,26.902,34.201,26.835,34.471,26.839
		L34.471,26.839z"/>
	<g>
		<path opacity="0.5" fill="#FFFFFF" d="M49.533,19.417c0-0.143-0.116-0.259-0.258-0.259l-8.085,0.003
			c-0.142,0-0.256,0.115-0.256,0.259v8.082c0,0.143,0.116,0.259,0.259,0.259l8.084-0.001c0.142,0,0.258-0.117,0.258-0.259
			L49.533,19.417z"/>
		<path opacity="0.75" fill="#E4E7ED" d="M48.376,24.648c-0.128-0.306-0.164-0.697-0.186-1.015c-0.304,0.675-0.76,1.716-1.275,1.635
			c-0.307-0.048-0.328-0.581-0.256-1.097c-0.205,0.438-0.398,0.894-0.635,1.168c0,0-0.016,0.022-0.054,0.065
			c-0.059,0.069-0.2,0.228-0.331,0.26c-0.01,0.002-0.025,0.005-0.041,0.007c-0.039,0.006-0.08,0.003-0.125-0.007
			c-0.103-0.032-0.2-0.136-0.283-0.331c-0.017-0.034-0.029-0.071-0.04-0.107c-0.011-0.053-0.02-0.103-0.025-0.152
			c-0.089,0.148-0.193,0.285-0.309,0.397c-0.375,0.366-0.78,0.593-1.257,0.729c-0.432,0.123-0.961,0.226-1.386,0.015
			c-0.432-0.213-0.508-0.716-0.316-1.141c0.071-0.157,0.114-0.063,0.086,0.119c-0.01,0.066-0.021,0.129-0.022,0.196
			c-0.035,1.093,1.657,0.573,2.124,0.304c0.346-0.199,0.484-0.35,0.653-0.521c0.229-0.233,0.394-0.634,0.433-0.975
			c0.096-0.818-0.922-0.813-1.402-0.791c-0.017,0.001-0.03-0.003-0.044-0.007c-0.055,0.148-0.113,0.296-0.173,0.442
			c-0.115,0.284-0.222,0.523-0.335,0.81c-0.096,0.239-0.245,0.546-0.392,0.75c-0.089,0.124-0.157,0.083-0.151-0.063
			c0.011-0.258,0.149-0.544,0.246-0.774c0.11-0.263,0.224-0.524,0.335-0.788c0.217-0.519,0.428-1.047,0.554-1.605
			c0.037-0.165,0.265-0.14,0.237,0.036c-0.03,0.198-0.073,0.394-0.127,0.585c0.155-0.21,0.313-0.417,0.446-0.647
			c0.134-0.23,0.426-0.854,0.063-1.044c-0.297-0.156-0.698,0.094-0.925,0.277c-0.253,0.204-0.532,0.469-0.742,0.802
			c-0.098,0.121-0.16,0.051-0.112-0.045c0.186-0.372,0.53-0.736,0.843-0.971c0.292-0.219,0.761-0.511,1.108-0.265
			c0.395,0.282,0.243,0.864,0.055,1.234c-0.179,0.354-0.414,0.656-0.634,0.975c0.471-0.003,1.04,0.064,1.305,0.502
			c0.028,0.047,0.053,0.096,0.071,0.146c0.116-0.315,0.245-0.578,0.337-0.781c0.353-0.771,0.536-1.105,0.992-1.771
			c0.064-0.093,0.158,0.012,0.104,0.107c-0.643,1.12-1.063,1.978-1.328,3.029c-0.021,0.089-0.039,0.175-0.046,0.224
			c0.001,0.001-0.002,0.008-0.001,0.009c-0.025,0.192-0.039,0.456,0.047,0.618c0.02,0.033,0.038,0.057,0.059,0.071
			c0,0,0.002,0.002,0.002,0.001c0.113,0.087,0.255-0.067,0.329-0.166c0.187-0.235,0.352-0.503,0.493-0.79
			c0.234-0.472,0.478-0.976,0.629-1.51c0.046-0.165,0.244-0.131,0.235,0.061c-0.016,0.309-0.098,0.605-0.155,0.9
			c-0.041,0.205-0.298,1.436,0.104,1.054c0.438-0.417,0.726-1.085,1.016-1.681c0.052-0.107,0.196-0.089,0.214,0.053
			c0.055,0.455,0.062,0.875,0.208,1.309C48.662,24.689,48.457,24.838,48.376,24.648z"/>
		<path fill="#FFFFFF" d="M43.678,23.661c0.104-0.061,0.165-0.158,0.165-0.289v-0.162c0-0.178-0.073-0.477-0.559-0.477h-1.668v2.001
			h1.695c0.367,0,0.604-0.179,0.604-0.457v-0.225C43.915,23.852,43.835,23.722,43.678,23.661z M43.473,23.369
			c0,0.082-0.024,0.175-0.224,0.175c0,0-1.157,0-1.263,0c0-0.084,0-0.404,0-0.487c0.105,0,1.275,0,1.275,0
			c0.034,0,0.211,0.006,0.211,0.14V23.369z M41.986,23.867c0.105,0,1.255,0,1.255,0c0.242,0,0.305,0.044,0.305,0.215v0.136
			c0,0.12-0.044,0.194-0.266,0.194c0,0-1.188,0-1.294,0C41.986,24.326,41.986,23.953,41.986,23.867z M44.726,24.412h1.466v0.322
			h-1.836v-2.001h0.37V24.412z M48.842,22.733v1.471c0,0.46-0.279,0.553-0.73,0.553h-0.87c-0.451,0-0.729-0.093-0.729-0.553v-1.471
			h0.369v1.468c0,0.14,0.024,0.232,0.353,0.232h0.886c0.328,0,0.354-0.093,0.354-0.232v-1.468H48.842z"/>
	</g>
</g>
</svg>
