<?xml version="1.0" encoding="UTF-8"?>
<!DOCTYPE svg PUBLIC "-//W3C//DTD SVG 1.1//EN" "http://www.w3.org/Graphics/SVG/1.1/DTD/svg11.dtd">
<!-- Creator: CorelDRAW 2018 (64-Bit Evaluation Version) -->
<svg xmlns="http://www.w3.org/2000/svg" xml:space="preserve" width="150px" height="150px" version="1.1" style="shape-rendering:geometricPrecision; text-rendering:geometricPrecision; image-rendering:optimizeQuality; fill-rule:evenodd; clip-rule:evenodd"
viewBox="0 0 150 150"
 xmlns:xlink="http://www.w3.org/1999/xlink">
 <defs>
  <style type="text/css">
   <![CDATA[
    .fil0 {fill:#FEFEFE;fill-rule:nonzero}
   ]]>
  </style>
 </defs>
 <g id="Layer_x0020_1">
  <metadata id="CorelCorpID_0Corel-Layer"/>
  <path class="fil0" d="M112.52 76.18c0,1.83 0.07,1.87 1.71,1.87l5.51 0c0.23,0 0.43,0.2 0.43,0.44l0 1.38c0,0.31 -0.11,0.42 -0.43,0.46 -0.7,0.11 -2.11,0.31 -4.7,0.31 -3.61,0 -5.52,0.02 -5.52,-4.46l0 -6.87c0,-4.48 1.91,-4.45 5.52,-4.45 2.59,0 4,0.19 4.7,0.3 0.32,0.04 0.43,0.15 0.43,0.46l0 1.38c0,0.24 -0.2,0.44 -0.43,0.44l-5.51 0c-1.64,0 -1.71,0.05 -1.71,1.87l0 1.99 6.95 0c0.24,0 0.44,0.2 0.44,0.43l0 1.57c0,0.24 -0.2,0.44 -0.44,0.44l-6.95 0 0 2.44zm32.13 4.47c-1.92,0 -3.86,-0.33 -4.91,-0.58 -0.21,-0.04 -0.41,-0.19 -0.41,-0.43l0 -1.56c0,-0.24 0.2,-0.42 0.41,-0.42l0.05 0c0.86,0.11 2.9,0.39 4.9,0.39 1.94,0 2.53,-0.68 2.53,-1.95 0,-1.63 -3.89,-2.52 -5.79,-3.31 -1.88,-0.78 -2.56,-2.28 -2.56,-3.8 0,-2.39 1.93,-4.13 5.97,-4.13 2.07,0 3.96,0.4 4.7,0.57 0.22,0.05 0.39,0.2 0.39,0.42l0 1.6c0,0.22 -0.15,0.4 -0.37,0.4l-0.04 0c-1.43,-0.14 -2.92,-0.4 -4.81,-0.4 -1.61,0 -2.81,0.56 -2.81,1.54 0,0.72 0.81,1.38 1.78,1.76 0.96,0.38 2.23,0.87 3.67,1.45 1.83,0.74 3.02,1.82 3.02,3.9 0,2.2 -1.37,4.55 -5.72,4.55zm-11.55 -10.88c0,-1.63 -1.26,-2.33 -3.44,-2.33 -0.45,0 -2.43,0.05 -2.82,0.09l0 4.71c0.35,0.02 2.46,0.06 2.82,0.06 2.24,0 3.44,-0.43 3.44,-2.34l0 -0.19zm3.26 10.69l-2.65 0c-0.24,0 -0.32,-0.22 -0.43,-0.43l-3.13 -5.27 -0.49 0c-0.56,0 -2.32,-0.06 -2.82,-0.09l0 5.36c0,0.24 -0.17,0.43 -0.41,0.43l-2.17 0c-0.24,0 -0.44,-0.19 -0.44,-0.43l0 -14.24c0,-0.44 0.26,-0.59 0.7,-0.65 1.12,-0.17 3.56,-0.28 5.14,-0.28 3.35,0 6.44,1.19 6.44,4.91l0 0.19c0,2.3 -1.16,3.56 -2.94,4.25l3.42 5.82c0.04,0.06 0.04,0.12 0.04,0.18 0,0.14 -0.08,0.25 -0.26,0.25zm-29.51 -12.91l-4.33 0 0 12.48c0,0.24 -0.2,0.43 -0.44,0.43l-2.15 0c-0.24,0 -0.43,-0.19 -0.43,-0.43l0 -12.48 -4.34 0c-0.24,0 -0.43,-0.15 -0.43,-0.39l0 -1.72c0,-0.24 0.19,-0.41 0.43,-0.41l11.69 0c0.24,0 0.43,0.17 0.43,0.41l0 1.72c0,0.24 -0.19,0.39 -0.43,0.39zm-20.8 13.09c-3.49,0 -6.5,-1.53 -6.5,-6.16l0 -9.04c0,-0.24 0.2,-0.41 0.44,-0.41l2.14 0c0.24,0 0.44,0.17 0.44,0.41l0 9.04c0,2.48 1.14,3.66 3.48,3.66 2.35,0 3.5,-1.18 3.5,-3.66l0 -9.04c0,-0.24 0.19,-0.41 0.43,-0.41l2.15 0c0.24,0 0.44,0.17 0.44,0.41l0 9.04c0,4.63 -3.01,6.16 -6.52,6.16zm-17.4 -4.46c0,1.83 0.07,1.87 1.71,1.87l5.51 0c0.24,0 0.43,0.2 0.43,0.44l0 1.38c0,0.31 -0.11,0.42 -0.43,0.46 -0.7,0.11 -2.11,0.31 -4.7,0.31 -3.61,0 -5.51,0.02 -5.51,-4.46l0 -6.87c0,-4.48 1.9,-4.45 5.51,-4.45 2.59,0 4,0.19 4.7,0.3 0.32,0.04 0.43,0.15 0.43,0.46l0 1.38c0,0.24 -0.19,0.44 -0.43,0.44l-5.51 0c-1.64,0 -1.71,0.05 -1.71,1.87l0 1.99 6.95 0c0.24,0 0.44,0.2 0.44,0.43l0 1.57c0,0.24 -0.2,0.44 -0.44,0.44l-6.95 0 0 2.44zm-9.31 -6.41c0,-1.63 -1.27,-2.33 -3.44,-2.33 -0.45,0 -2.43,0.05 -2.82,0.09l0 4.71c0.35,0.02 2.45,0.06 2.82,0.06 2.24,0 3.44,-0.43 3.44,-2.34l0 -0.19zm3.26 10.69l-2.65 0c-0.24,0 -0.33,-0.22 -0.44,-0.43l-3.13 -5.27 -0.48 0c-0.57,0 -2.32,-0.06 -2.82,-0.09l0 5.36c0,0.24 -0.18,0.43 -0.41,0.43l-2.18 0c-0.24,0 -0.43,-0.19 -0.43,-0.43l0 -14.24c0,-0.44 0.25,-0.59 0.7,-0.65 1.13,-0.17 3.55,-0.28 5.14,-0.28 3.35,0 6.44,1.19 6.44,4.91l0 0.19c0,2.3 -1.15,3.56 -2.94,4.25l3.41 5.82c0.05,0.06 0.05,0.12 0.05,0.18 0,0.14 -0.09,0.25 -0.26,0.25z"/>
  <path class="fil0" d="M11.34 62.54c-0.21,-0.27 -0.61,-0.32 -0.88,-0.1 -0.27,0.22 -0.32,0.61 -0.11,0.88 0.22,0.28 0.62,0.32 0.89,0.11 0.27,-0.22 0.32,-0.61 0.1,-0.89zm6.33 -2.37c-0.05,-0.35 -0.37,-0.58 -0.72,-0.53 -0.34,0.05 -0.57,0.37 -0.52,0.71 0.05,0.35 0.36,0.58 0.71,0.53 0.34,-0.05 0.58,-0.37 0.53,-0.71zm3.06 25.27c-0.34,0.05 -0.58,0.37 -0.53,0.72 0.05,0.34 0.37,0.58 0.72,0.53 0.34,-0.05 0.58,-0.37 0.53,-0.72 -0.05,-0.34 -0.37,-0.58 -0.72,-0.53zm5.9 -2.54c-0.27,0.22 -0.32,0.61 -0.1,0.88 0.22,0.28 0.61,0.32 0.88,0.1 0.28,-0.21 0.32,-0.6 0.11,-0.88 -0.22,-0.27 -0.61,-0.32 -0.89,-0.1zm-19.19 -1.18c0.26,0.7 1.04,1.05 1.73,0.79 0.69,-0.26 1.05,-1.02 0.79,-1.72 -0.25,-0.7 -1.03,-1.05 -1.72,-0.8 -0.7,0.26 -1.05,1.03 -0.8,1.73zm2.55 2.26c0.2,0.65 0.88,1 1.52,0.8 0.64,-0.2 1,-0.88 0.8,-1.52 -0.2,-0.64 -0.88,-1 -1.52,-0.8 -0.65,0.2 -1,0.88 -0.8,1.52zm3.19 1.54c0.13,0.53 0.66,0.84 1.18,0.71 0.52,-0.14 0.84,-0.66 0.71,-1.19 -0.14,-0.52 -0.67,-0.84 -1.19,-0.7 -0.52,0.13 -0.84,0.66 -0.7,1.18zm3.45 0.76c0.09,0.43 0.51,0.72 0.95,0.63 0.43,-0.09 0.72,-0.51 0.63,-0.95 -0.09,-0.44 -0.51,-0.72 -0.95,-0.63 -0.43,0.09 -0.72,0.51 -0.63,0.95zm-10 -10.03c0.66,-0.32 0.93,-1.13 0.6,-1.79 -0.33,-0.67 -1.13,-0.94 -1.8,-0.61 -0.66,0.33 -0.93,1.13 -0.61,1.8 0.33,0.66 1.14,0.93 1.81,0.6zm-0.05 -3.54c0.59,-0.33 0.79,-1.07 0.46,-1.66 -0.33,-0.58 -1.07,-0.79 -1.65,-0.46 -0.59,0.33 -0.8,1.07 -0.47,1.65 0.33,0.59 1.07,0.8 1.66,0.47zm0.76 -3.54c0.46,-0.29 0.59,-0.89 0.3,-1.35 -0.29,-0.45 -0.89,-0.59 -1.35,-0.3 -0.45,0.29 -0.59,0.89 -0.3,1.35 0.29,0.45 0.89,0.59 1.35,0.3zm1.6 -3.14c0.36,-0.26 0.45,-0.76 0.19,-1.12 -0.26,-0.37 -0.76,-0.45 -1.12,-0.19 -0.36,0.25 -0.45,0.75 -0.19,1.12 0.26,0.36 0.76,0.45 1.12,0.19zm-1.4 13.64c0.74,-0.32 1.08,-1.18 0.76,-1.92 -0.32,-0.74 -1.18,-1.08 -1.92,-0.76 -0.73,0.32 -1.08,1.17 -0.76,1.92 0.32,0.73 1.18,1.08 1.92,0.76zm16.33 4.93c-0.3,0.13 -0.44,0.47 -0.31,0.77 0.13,0.3 0.48,0.43 0.77,0.31 0.3,-0.13 0.44,-0.48 0.31,-0.78 -0.13,-0.29 -0.47,-0.43 -0.77,-0.3zm7.38 -14.53c-0.66,0.33 -0.94,1.13 -0.61,1.8 0.33,0.67 1.13,0.93 1.8,0.6 0.66,-0.32 0.93,-1.12 0.6,-1.79 -0.33,-0.66 -1.13,-0.94 -1.79,-0.61zm0.04 3.55c-0.58,0.33 -0.79,1.07 -0.46,1.66 0.33,0.58 1.07,0.79 1.65,0.46 0.59,-0.33 0.8,-1.07 0.47,-1.66 -0.33,-0.58 -1.07,-0.79 -1.66,-0.46zm-0.75 3.53c-0.46,0.29 -0.6,0.9 -0.31,1.35 0.29,0.46 0.89,0.59 1.35,0.3 0.45,-0.28 0.59,-0.89 0.3,-1.34 -0.29,-0.46 -0.89,-0.59 -1.34,-0.31zm-1.61 3.15c-0.36,0.25 -0.44,0.75 -0.19,1.12 0.26,0.36 0.76,0.45 1.13,0.19 0.36,-0.26 0.44,-0.76 0.18,-1.12 -0.25,-0.37 -0.76,-0.45 -1.12,-0.19zm-14.62 -19.34c-0.13,-0.3 -0.47,-0.44 -0.77,-0.31 -0.3,0.13 -0.44,0.47 -0.31,0.77 0.13,0.3 0.48,0.43 0.77,0.31 0.3,-0.13 0.44,-0.48 0.31,-0.77zm16.12 3.65c-0.26,-0.7 -1.03,-1.05 -1.73,-0.8 -0.69,0.26 -1.05,1.03 -0.79,1.73 0.26,0.69 1.03,1.05 1.72,0.79 0.7,-0.25 1.05,-1.03 0.8,-1.72zm-2.54 -2.27c-0.21,-0.64 -0.89,-1 -1.53,-0.8 -0.64,0.2 -1,0.88 -0.8,1.53 0.2,0.64 0.89,0.99 1.52,0.79 0.65,-0.2 1,-0.88 0.81,-1.52zm-3.19 -1.54c-0.14,-0.52 -0.67,-0.84 -1.19,-0.7 -0.52,0.13 -0.84,0.66 -0.7,1.18 0.13,0.53 0.66,0.84 1.18,0.71 0.53,-0.13 0.84,-0.67 0.71,-1.19zm-3.46 -0.75c-0.09,-0.44 -0.51,-0.72 -0.95,-0.63 -0.43,0.08 -0.72,0.51 -0.63,0.95 0.09,0.43 0.51,0.71 0.95,0.63 0.43,-0.09 0.72,-0.51 0.63,-0.95zm10.25 9.29c-0.74,0.32 -1.6,-0.02 -1.92,-0.76 -0.32,-0.75 0.02,-1.6 0.76,-1.92 0.74,-0.32 1.6,0.02 1.92,0.76 0.32,0.74 -0.02,1.6 -0.76,1.92zm-16.1 -12.52c-0.11,-0.43 -0.56,-0.68 -0.99,-0.57 -0.42,0.12 -0.68,0.56 -0.57,0.99 0.12,0.43 0.56,0.68 0.99,0.57 0.43,-0.12 0.69,-0.56 0.57,-0.99zm8.65 0.42c0.12,-0.43 -0.14,-0.87 -0.57,-0.99 -0.43,-0.11 -0.88,0.14 -0.99,0.57 -0.11,0.43 0.14,0.87 0.57,0.99 0.43,0.11 0.87,-0.14 0.99,-0.57zm-9.22 31.28c-0.43,-0.12 -0.87,0.13 -0.99,0.57 -0.11,0.43 0.15,0.87 0.57,0.98 0.43,0.12 0.88,-0.14 0.99,-0.57 0.12,-0.43 -0.14,-0.87 -0.57,-0.98zm8.23 0c-0.43,0.11 -0.68,0.55 -0.57,0.98 0.11,0.43 0.56,0.69 0.99,0.57 0.43,-0.11 0.69,-0.55 0.57,-0.98 -0.12,-0.44 -0.56,-0.69 -0.99,-0.57zm-21.97 -11.12c-0.05,0.95 0.69,1.75 1.63,1.8 0.95,0.05 1.76,-0.67 1.8,-1.63 0.06,-0.94 -0.67,-1.75 -1.62,-1.8 -0.95,-0.05 -1.76,0.68 -1.81,1.63zm1.84 3.95c-0.09,0.86 0.53,1.62 1.39,1.71 0.86,0.09 1.62,-0.52 1.71,-1.38 0.09,-0.86 -0.53,-1.63 -1.38,-1.72 -0.87,-0.09 -1.63,0.53 -1.72,1.39zm2.97 3.43c-0.11,0.68 0.36,1.32 1.04,1.43 0.68,0.11 1.32,-0.36 1.43,-1.04 0.11,-0.68 -0.36,-1.32 -1.04,-1.43 -0.68,-0.11 -1.32,0.36 -1.43,1.04zm3.68 2.63c-0.11,0.57 0.24,1.11 0.8,1.23 0.55,0.12 1.11,-0.23 1.22,-0.8 0.12,-0.55 -0.23,-1.1 -0.79,-1.22 -0.56,-0.12 -1.11,0.24 -1.23,0.79zm-6.68 -16.86c0.95,-0.05 1.67,-0.85 1.62,-1.8 -0.04,-0.95 -0.85,-1.68 -1.8,-1.63 -0.94,0.05 -1.68,0.85 -1.63,1.81 0.05,0.95 0.86,1.67 1.81,1.62zm1.75 -4.19c0.85,-0.09 1.47,-0.86 1.38,-1.71 -0.09,-0.86 -0.86,-1.48 -1.71,-1.39 -0.86,0.09 -1.48,0.85 -1.39,1.71 0.09,0.86 0.85,1.48 1.72,1.39zm2.68 -3.77c0.68,-0.11 1.15,-0.75 1.04,-1.44 -0.11,-0.68 -0.75,-1.14 -1.43,-1.03 -0.68,0.11 -1.15,0.74 -1.04,1.43 0.11,0.68 0.75,1.15 1.43,1.04zm3.48 -2.89c0.56,-0.12 0.91,-0.66 0.79,-1.22 -0.11,-0.56 -0.66,-0.91 -1.22,-0.79 -0.56,0.12 -0.91,0.66 -0.8,1.22 0.12,0.56 0.67,0.91 1.23,0.79zm-8.56 15.33c1.02,0 1.86,-0.84 1.86,-1.87 0,-1.04 -0.84,-1.87 -1.86,-1.87 -1.04,0 -1.88,0.83 -1.88,1.87 0,1.03 0.84,1.87 1.88,1.87zm16.7 14.08c-0.42,0 -0.75,0.34 -0.75,0.75 0,0.42 0.33,0.75 0.75,0.75 0.41,0 0.75,-0.33 0.75,-0.75 0,-0.41 -0.34,-0.75 -0.75,-0.75zm16.04 -13.34c-0.94,0.05 -1.67,0.86 -1.62,1.8 0.05,0.96 0.86,1.68 1.8,1.63 0.95,-0.05 1.68,-0.85 1.63,-1.8 -0.05,-0.95 -0.86,-1.68 -1.81,-1.63zm-1.75 4.19c-0.85,0.09 -1.47,0.86 -1.38,1.72 0.09,0.86 0.86,1.47 1.71,1.38 0.86,-0.09 1.48,-0.85 1.39,-1.71 -0.09,-0.86 -0.86,-1.48 -1.72,-1.39zm-2.68 3.78c-0.68,0.1 -1.15,0.75 -1.04,1.43 0.11,0.68 0.75,1.15 1.43,1.04 0.68,-0.11 1.15,-0.75 1.04,-1.43 -0.11,-0.69 -0.75,-1.15 -1.43,-1.04zm-3.48 2.88c-0.55,0.12 -0.91,0.67 -0.79,1.22 0.12,0.57 0.67,0.92 1.22,0.8 0.56,-0.12 0.92,-0.66 0.8,-1.23 -0.12,-0.55 -0.67,-0.91 -1.23,-0.79zm-7.38 -30.16c0,-0.42 -0.34,-0.75 -0.75,-0.75 -0.42,0 -0.75,0.33 -0.75,0.75 0,0.42 0.33,0.75 0.75,0.75 0.41,0 0.75,-0.33 0.75,-0.75zm17.1 12.47c0.05,-0.96 -0.68,-1.76 -1.63,-1.81 -0.94,-0.05 -1.75,0.68 -1.8,1.63 -0.05,0.95 0.68,1.75 1.62,1.8 0.95,0.05 1.76,-0.67 1.81,-1.62zm-1.84 -3.96c0.09,-0.86 -0.53,-1.62 -1.39,-1.71 -0.85,-0.09 -1.62,0.53 -1.71,1.39 -0.09,0.85 0.54,1.62 1.38,1.71 0.86,0.09 1.63,-0.53 1.72,-1.39zm-2.97 -3.42c0.11,-0.69 -0.36,-1.32 -1.03,-1.43 -0.69,-0.11 -1.33,0.35 -1.44,1.04 -0.11,0.68 0.36,1.32 1.04,1.43 0.68,0.11 1.33,-0.36 1.43,-1.04zm-3.68 -2.64c0.12,-0.56 -0.24,-1.1 -0.8,-1.22 -0.55,-0.12 -1.1,0.23 -1.22,0.79 -0.12,0.56 0.24,1.1 0.79,1.22 0.56,0.12 1.11,-0.23 1.23,-0.79zm7.34 16.12c-1.04,0 -1.87,-0.84 -1.87,-1.87 0,-1.04 0.83,-1.87 1.87,-1.87 1.03,0 1.87,0.83 1.87,1.87 0,1.03 -0.84,1.87 -1.87,1.87zm-12.48 2.43c0.31,-0.17 0.43,-0.56 0.26,-0.87 -0.17,-0.31 -0.56,-0.43 -0.87,-0.26 -0.31,0.17 -0.42,0.56 -0.26,0.87 0.17,0.31 0.56,0.43 0.87,0.26zm0.93 -1.46c0.28,-0.15 0.38,-0.49 0.23,-0.77 -0.15,-0.28 -0.49,-0.39 -0.77,-0.24 -0.28,0.15 -0.38,0.51 -0.24,0.78 0.16,0.28 0.5,0.38 0.78,0.23zm0.45 -1.68c0.25,-0.14 0.33,-0.44 0.2,-0.68 -0.13,-0.25 -0.43,-0.33 -0.67,-0.2 -0.25,0.13 -0.33,0.43 -0.21,0.68 0.13,0.24 0.45,0.32 0.68,0.2zm-0.08 -1.75c0.21,-0.12 0.29,-0.39 0.18,-0.59 -0.11,-0.21 -0.37,-0.28 -0.58,-0.17 -0.21,0.11 -0.29,0.37 -0.17,0.58 0.11,0.21 0.37,0.28 0.57,0.18zm-3.98 5.61c-0.17,-0.31 -0.56,-0.43 -0.88,-0.26 -0.31,0.16 -0.42,0.55 -0.25,0.87 0.16,0.31 0.55,0.43 0.87,0.26 0.31,-0.17 0.42,-0.56 0.26,-0.87zm-1.76 0.07c-0.14,-0.28 -0.49,-0.38 -0.78,-0.23 -0.28,0.15 -0.37,0.5 -0.23,0.77 0.16,0.28 0.5,0.38 0.78,0.24 0.28,-0.15 0.39,-0.5 0.23,-0.78zm-1.68 -0.45c-0.14,-0.24 -0.44,-0.34 -0.68,-0.2 -0.24,0.13 -0.33,0.43 -0.2,0.67 0.12,0.25 0.43,0.34 0.67,0.21 0.25,-0.14 0.34,-0.44 0.21,-0.68zm-1.46 -0.93c-0.11,-0.2 -0.37,-0.28 -0.58,-0.17 -0.21,0.11 -0.28,0.37 -0.17,0.58 0.11,0.21 0.37,0.29 0.58,0.17 0.2,-0.11 0.28,-0.37 0.17,-0.58zm6.57 0.71c-0.19,-0.36 -0.63,-0.5 -0.99,-0.3 -0.35,0.19 -0.49,0.63 -0.29,0.99 0.19,0.35 0.63,0.48 0.99,0.29 0.35,-0.19 0.48,-0.64 0.29,-0.98zm1.24 -6.82c0.09,0.17 0.31,0.23 0.48,0.14 0.17,-0.09 0.24,-0.31 0.14,-0.48 -0.09,-0.18 -0.3,-0.24 -0.48,-0.15 -0.17,0.1 -0.24,0.32 -0.14,0.49zm-5.99 -2.62c0.17,0.32 0.56,0.43 0.87,0.26 0.31,-0.17 0.43,-0.56 0.26,-0.87 -0.16,-0.31 -0.56,-0.43 -0.87,-0.26 -0.32,0.17 -0.43,0.56 -0.26,0.87zm1.75 -0.07c0.15,0.27 0.5,0.38 0.77,0.23 0.29,-0.15 0.39,-0.5 0.24,-0.78 -0.14,-0.27 -0.49,-0.38 -0.77,-0.22 -0.28,0.14 -0.38,0.49 -0.24,0.77zm1.69 0.45c0.13,0.24 0.44,0.33 0.68,0.2 0.24,-0.13 0.33,-0.44 0.2,-0.68 -0.13,-0.24 -0.44,-0.33 -0.68,-0.2 -0.24,0.13 -0.33,0.44 -0.2,0.68zm1.45 0.93c0.12,0.2 0.37,0.28 0.59,0.17 0.21,-0.12 0.29,-0.37 0.17,-0.58 -0.11,-0.21 -0.37,-0.29 -0.58,-0.18 -0.21,0.12 -0.29,0.38 -0.18,0.59zm-8.28 5.96c-0.18,0.1 -0.24,0.31 -0.15,0.49 0.1,0.17 0.31,0.24 0.49,0.15 0.17,-0.1 0.24,-0.32 0.14,-0.49 -0.1,-0.17 -0.31,-0.24 -0.48,-0.15zm0.71 -6.55c-0.32,0.17 -0.44,0.55 -0.27,0.87 0.18,0.31 0.56,0.43 0.87,0.26 0.32,-0.17 0.44,-0.56 0.27,-0.87 -0.17,-0.31 -0.56,-0.43 -0.87,-0.26zm-0.93 1.46c-0.28,0.15 -0.38,0.49 -0.24,0.77 0.16,0.28 0.51,0.38 0.78,0.23 0.28,-0.15 0.39,-0.5 0.24,-0.78 -0.16,-0.27 -0.5,-0.37 -0.78,-0.22zm-0.45 1.68c-0.24,0.13 -0.33,0.44 -0.2,0.68 0.13,0.24 0.43,0.33 0.67,0.2 0.25,-0.13 0.34,-0.44 0.21,-0.68 -0.13,-0.24 -0.44,-0.33 -0.68,-0.2zm0.07 1.76c-0.21,0.11 -0.29,0.37 -0.17,0.58 0.11,0.21 0.37,0.28 0.58,0.17 0.2,-0.11 0.29,-0.37 0.17,-0.58 -0.12,-0.21 -0.37,-0.29 -0.58,-0.17zm3.6 -5.71c0.19,0.36 0.06,0.8 -0.29,0.99 -0.36,0.19 -0.8,0.05 -0.99,-0.3 -0.2,-0.35 -0.06,-0.79 0.29,-0.98 0.36,-0.2 0.8,-0.07 0.99,0.29zm1.91 13.32c0.43,0.13 0.89,-0.12 1.01,-0.55 0.12,-0.44 -0.12,-0.89 -0.55,-1.02 -0.43,-0.13 -0.89,0.12 -1.01,0.56 -0.13,0.43 0.12,0.88 0.55,1.01zm2.31 -0.52c0.38,0.11 0.78,-0.11 0.9,-0.49 0.11,-0.38 -0.11,-0.79 -0.49,-0.9 -0.39,-0.12 -0.79,0.11 -0.91,0.49 -0.11,0.39 0.12,0.79 0.5,0.9zm2.08 -1.26c0.3,0.09 0.62,-0.09 0.71,-0.39 0.09,-0.3 -0.08,-0.62 -0.39,-0.71 -0.3,-0.09 -0.62,0.09 -0.71,0.39 -0.09,0.3 0.09,0.62 0.39,0.71zm1.62 -1.79c0.25,0.07 0.51,-0.07 0.58,-0.31 0.07,-0.25 -0.07,-0.51 -0.31,-0.58 -0.25,-0.07 -0.51,0.07 -0.58,0.31 -0.07,0.25 0.07,0.51 0.31,0.58zm-9.4 1.72c0.13,-0.43 -0.12,-0.89 -0.56,-1.01 -0.43,-0.13 -0.88,0.12 -1.01,0.55 -0.12,0.43 0.12,0.89 0.56,1.01 0.43,0.13 0.88,-0.12 1.01,-0.55zm-1.77 -1.62c0.11,-0.38 -0.11,-0.79 -0.5,-0.9 -0.38,-0.12 -0.78,0.11 -0.9,0.49 -0.11,0.39 0.11,0.79 0.49,0.9 0.39,0.12 0.79,-0.1 0.91,-0.49zm-1.26 -2.08c0.08,-0.31 -0.09,-0.62 -0.39,-0.71 -0.31,-0.09 -0.63,0.08 -0.71,0.39 -0.08,0.3 0.08,0.62 0.39,0.71 0.3,0.09 0.62,-0.09 0.71,-0.39zm-0.54 -2.32c0.07,-0.24 -0.07,-0.5 -0.31,-0.57 -0.25,-0.07 -0.5,0.07 -0.58,0.31 -0.07,0.25 0.07,0.5 0.32,0.58 0.24,0.07 0.5,-0.07 0.57,-0.32zm5.79 7.05c0.14,-0.5 -0.14,-1.02 -0.64,-1.17 -0.5,-0.14 -1.02,0.14 -1.16,0.64 -0.15,0.5 0.13,1.02 0.63,1.17 0.5,0.14 1.02,-0.15 1.17,-0.64zm7.98 -5.39c-0.05,0.18 0.05,0.38 0.23,0.43 0.19,0.05 0.38,-0.05 0.43,-0.24 0.06,-0.18 -0.05,-0.37 -0.24,-0.43 -0.17,-0.05 -0.37,0.05 -0.42,0.24zm-3.38 -8.35c-0.13,0.43 0.12,0.88 0.55,1.01 0.43,0.13 0.89,-0.13 1.01,-0.56 0.13,-0.43 -0.12,-0.88 -0.55,-1.01 -0.43,-0.13 -0.89,0.13 -1.01,0.56zm1.77 1.61c-0.12,0.39 0.11,0.79 0.49,0.91 0.39,0.11 0.79,-0.11 0.9,-0.5 0.12,-0.38 -0.11,-0.78 -0.49,-0.89 -0.38,-0.12 -0.78,0.1 -0.9,0.48zm1.26 2.09c-0.09,0.31 0.09,0.62 0.39,0.71 0.3,0.09 0.62,-0.08 0.71,-0.39 0.09,-0.3 -0.08,-0.62 -0.39,-0.71 -0.3,-0.09 -0.62,0.08 -0.71,0.39zm0.53 2.31c-0.07,0.25 0.07,0.51 0.32,0.58 0.25,0.07 0.5,-0.07 0.57,-0.32 0.07,-0.24 -0.06,-0.5 -0.31,-0.57 -0.24,-0.07 -0.5,0.07 -0.58,0.31zm-14 -2.08c-0.18,-0.05 -0.37,0.05 -0.43,0.23 -0.05,0.19 0.05,0.38 0.24,0.44 0.18,0.05 0.37,-0.06 0.43,-0.24 0.05,-0.19 -0.05,-0.37 -0.24,-0.43zm7.05 -5.78c-0.44,-0.13 -0.89,0.12 -1.02,0.55 -0.13,0.44 0.12,0.89 0.55,1.02 0.44,0.12 0.89,-0.13 1.02,-0.55 0.13,-0.44 -0.12,-0.89 -0.55,-1.02zm-2.31 0.52c-0.39,-0.12 -0.79,0.11 -0.9,0.49 -0.12,0.38 0.11,0.78 0.49,0.9 0.38,0.11 0.79,-0.11 0.9,-0.49 0.11,-0.39 -0.11,-0.79 -0.49,-0.9zm-2.08 1.26c-0.31,-0.09 -0.62,0.08 -0.71,0.38 -0.09,0.31 0.08,0.62 0.39,0.72 0.3,0.09 0.62,-0.09 0.71,-0.39 0.08,-0.3 -0.09,-0.62 -0.39,-0.71zm-1.63 1.79c-0.25,-0.07 -0.5,0.06 -0.58,0.31 -0.07,0.24 0.07,0.5 0.32,0.57 0.24,0.08 0.5,-0.06 0.57,-0.31 0.08,-0.24 -0.07,-0.5 -0.31,-0.57zm8.99 -2.22c-0.15,0.49 -0.67,0.78 -1.16,0.63 -0.51,-0.15 -0.79,-0.66 -0.64,-1.16 0.15,-0.5 0.66,-0.79 1.16,-0.64 0.51,0.15 0.79,0.67 0.64,1.17zm-7.93 16.56c0.42,0.4 1.08,0.38 1.47,-0.04 0.4,-0.43 0.38,-1.09 -0.04,-1.48 -0.42,-0.4 -1.09,-0.38 -1.48,0.04 -0.4,0.42 -0.38,1.08 0.05,1.48zm3.04 0.78c0.38,0.36 0.97,0.34 1.32,-0.04 0.35,-0.37 0.34,-0.96 -0.04,-1.31 -0.37,-0.36 -0.96,-0.34 -1.32,0.03 -0.35,0.38 -0.33,0.97 0.04,1.32zm3.24 -0.23c0.29,0.27 0.75,0.26 1.03,-0.04 0.28,-0.29 0.27,-0.75 -0.03,-1.03 -0.3,-0.28 -0.76,-0.26 -1.04,0.03 -0.27,0.29 -0.26,0.76 0.04,1.04zm3 -1.15c0.24,0.23 0.62,0.22 0.84,-0.02 0.23,-0.24 0.22,-0.61 -0.02,-0.84 -0.24,-0.23 -0.61,-0.22 -0.84,0.02 -0.23,0.24 -0.22,0.62 0.02,0.84zm-12.26 -3.63c0.4,-0.42 0.38,-1.09 -0.05,-1.49 -0.42,-0.4 -1.08,-0.37 -1.47,0.05 -0.4,0.42 -0.38,1.08 0.04,1.48 0.42,0.39 1.09,0.37 1.48,-0.04zm-1.13 -3c0.36,-0.37 0.34,-0.96 -0.03,-1.32 -0.38,-0.35 -0.97,-0.33 -1.32,0.04 -0.35,0.37 -0.34,0.97 0.04,1.32 0.37,0.35 0.96,0.33 1.31,-0.04zm-0.23 -3.23c0.28,-0.29 0.26,-0.76 -0.03,-1.04 -0.3,-0.27 -0.76,-0.26 -1.04,0.04 -0.27,0.29 -0.27,0.75 0.03,1.03 0.29,0.28 0.76,0.26 1.04,-0.03zm0.76 -3.07c0.22,-0.24 0.22,-0.61 -0.02,-0.83 -0.24,-0.23 -0.62,-0.22 -0.84,0.02 -0.23,0.23 -0.22,0.61 0.02,0.83 0.24,0.23 0.62,0.22 0.84,-0.02zm2.61 11.85c0.46,-0.49 0.44,-1.24 -0.05,-1.7 -0.49,-0.46 -1.25,-0.44 -1.7,0.05 -0.46,0.49 -0.44,1.24 0.05,1.7 0.48,0.46 1.25,0.44 1.7,-0.05zm12.78 -1.55c-0.16,0.18 -0.15,0.46 0.03,0.63 0.18,0.16 0.45,0.16 0.62,-0.02 0.17,-0.18 0.16,-0.46 -0.02,-0.63 -0.17,-0.16 -0.45,-0.16 -0.63,0.02zm1.05 -11.95c-0.4,0.42 -0.39,1.08 0.04,1.48 0.42,0.4 1.08,0.37 1.48,-0.04 0.4,-0.43 0.38,-1.08 -0.05,-1.49 -0.42,-0.39 -1.08,-0.37 -1.47,0.05zm1.12 2.99c-0.35,0.38 -0.34,0.97 0.04,1.32 0.37,0.35 0.96,0.33 1.32,-0.04 0.35,-0.37 0.33,-0.96 -0.04,-1.32 -0.38,-0.35 -0.97,-0.33 -1.32,0.04zm0.23 3.23c-0.27,0.3 -0.26,0.76 0.04,1.04 0.3,0.28 0.75,0.26 1.04,-0.03 0.27,-0.3 0.26,-0.76 -0.04,-1.04 -0.29,-0.27 -0.76,-0.26 -1.04,0.03zm-0.75 3.07c-0.23,0.24 -0.22,0.62 0.01,0.84 0.25,0.23 0.63,0.22 0.85,-0.02 0.22,-0.24 0.21,-0.62 -0.02,-0.85 -0.25,-0.22 -0.62,-0.21 -0.84,0.03zm-15.42 -10.92c-0.18,-0.17 -0.46,-0.16 -0.63,0.02 -0.17,0.17 -0.16,0.45 0.02,0.62 0.18,0.17 0.46,0.16 0.63,-0.02 0.16,-0.18 0.16,-0.46 -0.02,-0.62zm11.84 -2.61c-0.42,-0.4 -1.08,-0.38 -1.48,0.04 -0.39,0.42 -0.38,1.09 0.04,1.49 0.42,0.39 1.09,0.37 1.49,-0.05 0.39,-0.42 0.38,-1.08 -0.05,-1.48zm-3.05 -0.78c-0.38,-0.35 -0.96,-0.33 -1.32,0.04 -0.35,0.37 -0.33,0.96 0.04,1.32 0.38,0.35 0.97,0.33 1.32,-0.04 0.35,-0.38 0.33,-0.97 -0.04,-1.32zm-3.23 0.24c-0.3,-0.28 -0.76,-0.26 -1.04,0.03 -0.28,0.29 -0.26,0.76 0.04,1.04 0.29,0.27 0.75,0.26 1.03,-0.04 0.28,-0.29 0.27,-0.76 -0.03,-1.03zm-3.01 1.14c-0.24,-0.22 -0.61,-0.21 -0.84,0.02 -0.23,0.24 -0.21,0.62 0.02,0.84 0.24,0.23 0.62,0.22 0.84,-0.02 0.23,-0.24 0.22,-0.61 -0.02,-0.84zm12 2.74c-0.45,0.48 -1.21,0.5 -1.7,0.04 -0.48,-0.45 -0.5,-1.21 -0.05,-1.7 0.46,-0.48 1.22,-0.51 1.71,-0.05 0.48,0.46 0.5,1.22 0.04,1.71z"/>
 </g>
</svg>
