<?xml version="1.0" encoding="utf-8"?>
<!-- Generator: Adobe Illustrator 16.0.0, SVG Export Plug-In . SVG Version: 6.00 Build 0)  -->
<!DOCTYPE svg PUBLIC "-//W3C//DTD SVG 1.1//EN" "http://www.w3.org/Graphics/SVG/1.1/DTD/svg11.dtd">
<svg version="1.1" id="Layer_1" xmlns="http://www.w3.org/2000/svg" xmlns:xlink="http://www.w3.org/1999/xlink" x="0px" y="0px"
	 width="50px" height="50px" viewBox="0 0 50 50" enable-background="new 0 0 50 50" xml:space="preserve">
<g>
	<path fill-rule="evenodd" clip-rule="evenodd" fill="#FFFFFF" d="M25.279,14.175l-0.717,1.435l1.195,2.152l0.837-1.315
		L25.279,14.175L25.279,14.175z M21.334,13.218h2.631v0.359h-0.598l0.837,1.674l1.554-2.751l1.554,2.511c0,0,0.479-0.956,0.36-2.511
		c-0.12-1.554-1.555-3.108-3.588-2.989c-2.032,0-4.782,1.914-4.902,7.055c0,5.021,2.63,8.968,8.129,8.489
		c3.229-0.239,5.143-2.511,5.62-3.108c0.599-0.838,1.436-2.99,1.436-2.99h0.359c0,0-0.838,2.271-1.436,3.109
		c-0.717,0.837-2.751,3.108-5.979,3.349c-2.988,0.237-5.5-0.359-7.771-3.349c-2.512-3.109-2.033-6.815-0.957-8.968
		c1.077-2.271,2.75-3.348,3.826-3.707c1.794-0.598,4.306-0.479,5.381,1.914c0.717,1.554-0.119,4.185-0.119,4.185l1.674,2.989h0.478
		l0.119,0.359h-2.749v-0.359h0.598l-0.957-1.554l-1.555,2.631l-1.434-2.511c0,0-0.358,0.479-0.358,1.195
		c-0.12,0.837-0.36,2.631,1.076,3.588c1.555,1.076,2.87,0.836,3.587,0.597c0.718-0.119,2.391-0.597,3.468-4.065
		c0.957-3.108,0.119-8.369-2.87-10.163c-2.989-1.913-5.979-1.315-7.771-0.358c-2.63,1.315-3.946,4.424-3.946,4.424l-0.239,0.837
		h-0.358c0,0,0.837-2.99,3.468-5.022c2.63-1.793,5.62-1.554,7.055-1.195c1.195,0.358,5.021,1.673,6.337,6.217
		c1.076,4.185-1.674,8.011-3.468,9.207c-1.793,1.075-5.141,1.195-6.456-1.196c-0.718-1.434-0.359-3.108-0.24-3.467
		c0.121-0.359,0.36-1.076,0.36-1.076l-1.555-2.989h-0.598V13.218L21.334,13.218z"/>
	<polygon fill-rule="evenodd" clip-rule="evenodd" fill="#FFFFFF" points="3.398,33.187 5.91,33.187 5.91,33.426 5.312,33.426 
		6.986,38.926 8.66,33.426 8.062,33.426 8.062,33.187 9.736,33.187 9.736,33.426 9.019,33.426 6.508,41.077 3.997,33.426 
		3.398,33.426 3.398,33.187 	"/>
	<path fill-rule="evenodd" clip-rule="evenodd" fill="#FFFFFF" d="M13.682,38.208h2.033l-0.956-3.229L13.682,38.208L13.682,38.208z
		 M11.888,40.719v0.12h1.793v-0.12h-0.837l0.717-2.271h2.152l0.837,2.271h-0.837v0.12h2.631v-0.12h-0.718l-2.511-7.652l-2.511,7.652
		H11.888L11.888,40.719z"/>
	<polygon fill-rule="evenodd" clip-rule="evenodd" fill="#FFFFFF" points="21.812,33.187 24.324,33.187 24.324,33.426 
		23.605,33.426 23.605,40.719 24.443,40.719 24.443,40.839 21.812,40.839 21.812,40.719 22.649,40.719 22.649,33.426 21.812,33.426 
		21.812,33.187 	"/>
	<polygon fill-rule="evenodd" clip-rule="evenodd" fill="#FFFFFF" points="26.117,33.187 27.791,33.187 27.791,33.426 
		27.073,33.426 24.682,36.295 27.791,40.719 28.39,40.719 28.39,40.839 25.639,40.839 25.639,40.719 26.475,40.719 23.845,36.893 
		26.716,33.426 26.117,33.426 26.117,33.187 	"/>
	<polygon fill-rule="evenodd" clip-rule="evenodd" fill="#FFFFFF" points="31.856,33.187 34.486,33.187 34.486,33.426 
		33.649,33.426 33.649,40.719 34.486,40.719 34.486,40.839 31.856,40.839 31.856,40.719 32.692,40.719 32.692,33.426 31.856,33.426 
		31.856,33.187 	"/>
	<polygon fill-rule="evenodd" clip-rule="evenodd" fill="#FFFFFF" points="36.16,33.187 37.834,33.187 37.834,33.426 37.116,33.426 
		34.845,36.295 37.954,40.719 38.433,40.719 38.433,40.839 35.683,40.839 35.683,40.719 36.52,40.719 33.889,36.893 36.759,33.426 
		36.16,33.426 36.16,33.187 	"/>
	<path fill-rule="evenodd" clip-rule="evenodd" fill="#FFFFFF" d="M41.183,36.893c0,0,0.119-3.826,3.228-3.706
		c2.632,0,3.109,3.108,3.109,3.825c0,1.196-0.717,3.946-3.228,3.827C41.183,40.839,41.183,36.893,41.183,36.893L41.183,36.893z
		 M42.258,37.012c0,0-0.238-3.706,2.034-3.706c2.39,0,2.151,3.107,2.151,3.706s0.238,3.827-2.151,3.707
		C41.9,40.6,42.258,37.012,42.258,37.012L42.258,37.012z"/>
</g>
</svg>
