<?xml version="1.0" encoding="utf-8"?>
<!-- Generator: Adobe Illustrator 16.0.0, SVG Export Plug-In . SVG Version: 6.00 Build 0)  -->
<!DOCTYPE svg PUBLIC "-//W3C//DTD SVG 1.1//EN" "http://www.w3.org/Graphics/SVG/1.1/DTD/svg11.dtd">
<svg version="1.1" id="Layer_1" xmlns="http://www.w3.org/2000/svg" xmlns:xlink="http://www.w3.org/1999/xlink" x="0px" y="0px"
	 width="50px" height="50px" viewBox="0 0 50 50" enable-background="new 0 0 50 50" xml:space="preserve">
<path fill="#FFFFFF" d="M15.199,22.092c0.069,0.262,0.103,0.536,0.282,0.742c0.014,0.138-0.021,0.248-0.096,0.344
	c-0.083,1.141-0.646,2.247-1.731,2.81c-0.344,0.199-0.722,0.392-1.113,0.372c0.192-0.158,0.488-0.192,0.715-0.337
	c1.031-0.502,1.889-1.567,1.855-2.755c-0.22-0.233-0.571-0.062-0.838-0.062c-0.467,0.165-1.072,0.261-1.546,0.123
	c-0.426,0.035-0.825,0.207-1.264,0.097c-0.117,0.096-0.083,0.212,0,0.309c0.151,0.076,0.302,0.282,0.151,0.433
	c-0.488,0.364,0.007,0.866-0.062,1.327c0.22,0.494-0.625,1.174,0.248,1.298l1.58,0.31c0.729,0.446,1.375,1.111,2.165,1.422
	c0.227,0.329,0.749,0.22,0.928,0.618c-0.172,0.131-0.392,0.028-0.557-0.027c-0.158-0.254-0.413-0.254-0.619-0.371
	c-0.701-0.46-1.381-0.962-2.137-1.271c-0.969,0.097-2.13-0.37-2.907,0.282c-1.738,0.604-3.477-0.839-5.036,0.275
	c-0.873,0.246-1.952-0.021-2.659,0.591c-0.577,0.384-1.182,0.775-1.89,0.741c0.09-0.273,0.413-0.363,0.68-0.404
	c0.22,0.075,0.296-0.214,0.467-0.275c0.577-0.199,1.092-0.557,1.608-0.928c0.44-0.179,1.223,0.145,1.36-0.591
	c0.124-0.344,0.103-0.756,0.371-1.052c-0.042-0.247-0.076-0.57,0.028-0.804c0.171,0.083,0.124,0.302,0.309,0.406
	c0.804-0.282,1.704-0.049,2.412,0.273c0.68,0.015,1.416-0.157,1.828-0.769v-0.282c-0.275-0.501-0.612-0.975-0.714-1.546
	c-0.207-0.419-0.701-0.096-1.051-0.151c-0.289-0.069-0.667-0.069-0.804-0.371c0.529-0.522,1.298-0.021,1.951-0.31
	c0.069-0.055,0.11-0.13,0.124-0.219c-0.522-0.337-1.237-0.213-1.793-0.46c0.158-0.117,0.385,0.096,0.557-0.062
	c-0.33-0.241-0.866-0.089-1.237-0.282c0.158-0.007,0.385,0.027,0.495-0.027c-0.274-0.117-0.577-0.131-0.804-0.344
	c0.206,0.034,0.57,0.207,0.831,0.097c-0.275-0.166-0.673-0.158-0.927-0.433c-0.062-0.083-0.192-0.138-0.186-0.248
	c0.859,0.722,2.144,0.33,3.154,0.214c0.467,0.213,1.519-0.625,1.484,0.405c-0.062,0.151-0.027,0.351,0.097,0.46
	c-0.282,0.2,0.082,1.031-0.557,0.715c-0.117,0.096-0.042,0.268-0.062,0.398c0.206,0.22,0.495-0.028,0.742,0.096
	c1.141,0.254,2.247-0.241,3.367,0.062c0.275-0.013,0.488-0.179,0.681-0.405c-0.117-0.996-1.01-1.945-1.917-2.35
	c-0.344-0.158-0.743-0.178-1.079-0.336c0.254-0.11,0.556,0.062,0.831,0.089C13.908,20.216,14.883,21.089,15.199,22.092z"/>
<path fill-rule="evenodd" clip-rule="evenodd" fill="#FFFFFF" d="M49.024,23.363c0.248,0.406,0.262,0.982,0.158,1.45l-1.023,3.896
	c-0.688,0.068-1.504,0-2.226,0.063c0.165-1.244,0.652-2.434,0.837-3.711c-0.068-0.213-0.088-0.474-0.343-0.584
	c-0.522-0.096-1.037,0.096-1.361,0.522l-1.051,3.745c-0.722,0.068-1.504-0.007-2.226,0.062l-0.063-0.062l1.546-5.847l1.979-0.027
	c0.027,0.282-0.068,0.584-0.124,0.866l0.063,0.062c0.866-0.948,2.191-1.429,3.4-0.9L49.024,23.363z M41.454,23.178
	c0.509,0.364,0.322,1.093,0.273,1.608l-0.865,3.676c-0.026,0.145,0.323,0.232,0.123,0.343h-2.288
	c-0.02-0.185,0.056-0.412-0.062-0.556c-0.906,0.618-2.033,1.071-3.182,0.742c-0.459-0.124-0.892-0.564-0.926-1.052
	c-0.027-0.825,0.288-1.595,1.051-2.013c1.064-0.653,2.474-0.481,3.647-0.893c0.131-0.103,0.255-0.275,0.247-0.467
	c-0.027-0.172-0.109-0.344-0.28-0.433c-0.455-0.158-0.922,0-1.237,0.344l-0.151,0.185l-2.198,0.062
	c0.075-0.371,0.295-0.783,0.652-1.051C37.585,22.532,39.893,22.553,41.454,23.178z M35.482,22.834
	c-0.131,0.735-0.351,1.512-0.522,2.261c-0.755-0.076-1.538,0.028-1.979,0.742c-0.453,0.956-0.618,2.02-0.926,3.031
	c-0.847,0.02-1.471,0.09-2.288,0.062v-0.157l1.483-5.628v-0.062l2.007-0.062c0.027,0.391-0.234,0.776-0.187,1.174
	C33.696,23.432,34.466,22.772,35.482,22.834z M29.456,23.329c0.529,0.413,0.282,1.148,0.248,1.705l-0.839,3.587
	c0.041,0.116,0.269,0.226,0.123,0.337h-2.287l-0.028-0.523c-0.226,0.069-0.466,0.275-0.713,0.371
	c-0.825,0.413-2.097,0.688-2.935,0.124c-0.241-0.145-0.378-0.384-0.467-0.619c-0.096-0.755,0.083-1.497,0.68-1.978
	c1.08-0.866,2.55-0.798,3.87-1.086c0.137-0.055,0.322-0.206,0.336-0.371c0.055-0.248-0.069-0.454-0.247-0.584
	c-0.371-0.13-0.818-0.055-1.114,0.186l-0.335,0.371h-2.165c0.397-1.327,1.8-1.8,3.029-1.917
	C27.616,22.923,28.639,22.875,29.456,23.329z M23.458,23.206l-3.436,5.786l-0.062,0.062l-2.563,0.027l-0.618-5.875l2.35-0.062
	c0.007,1.298,0.089,2.439,0.151,3.71l2.014-3.71c0.776,0.041,1.381-0.062,2.165-0.027V23.206z M38.3,27.568
	c-0.378,0.15-0.805,0.254-1.176,0.027c-0.103-0.124-0.068-0.343-0.034-0.494c0.434-0.652,1.319-0.481,1.918-0.866
	C39.11,26.758,38.726,27.26,38.3,27.568z M26.241,27.719c-0.337,0.146-0.865,0.283-1.176,0c-0.116-0.144-0.055-0.37,0-0.521
	c0.468-0.577,1.3-0.439,1.884-0.804C27.052,26.915,26.666,27.41,26.241,27.719z"/>
</svg>
